<?xml version="1.0" encoding="utf-8"?>
<!-- Generator: Adobe Illustrator 23.0.5, SVG Export Plug-In . SVG Version: 6.00 Build 0)  -->
<svg version="1.1" id="Layer_1" xmlns="http://www.w3.org/2000/svg" xmlns:xlink="http://www.w3.org/1999/xlink" x="0px" y="0px"
	 viewBox="0 0 500 500" style="enable-background:new 0 0 500 500;" xml:space="preserve">
<style type="text/css">
	.st0{display:none;fill:#A7000A;}
	.st1{fill:#A7000A;}
</style>
<g>
	<path class="st0" d="M8.36,8.2C169.6,8.25,330.84,8.31,492.08,8.36c-0.06,161.24-0.11,322.48-0.17,483.72
		c-161.24-0.06-322.48-0.11-483.72-0.17C8.25,330.68,8.31,169.44,8.36,8.2z M222.38,290.08c6.84,2.41,13.69,4.83,20.53,7.24
		c2.51-7.45,5.01-14.91,7.84-23.31c11.11,4.84,20.72,9.57,30.75,13.12c4.24,1.5,9.37,0.49,14.1,0.61c-0.9-4.56-0.68-9.79-2.92-13.56
		c-5.27-8.87-11.72-17.05-16.13-23.3c12.31-9.71,23.08-18.21,33.84-26.7c-0.76-1.29-1.51-2.59-2.27-3.88
		c-4.15,0.44-8.3,0.89-15.71,1.68c3.49-11.22,3.79-22.96,9.82-29.11c9.63-9.82,23.05-15.93,35.61-24.08
		c2.65,13.41,6.23,27.8,23.04,29.04c13.02,0.96,26.4-0.34,39.37-2.29c6.92-1.04,13.31-5.58,22.52-9.69
		c-9.49-5.01-15.62-8.24-21.39-11.28c0.98-6.03,1.76-10.83,2.1-12.96c-18.12-13.89-34.47-26.43-50.83-38.97
		c1.03-1.29,2.06-2.58,3.1-3.87c7.01,5.76,13.52,12.34,21.18,17.06c7.6,4.69,16.34,10.61,24.59,10.62
		c29.38,0.02,55.13-10.85,73.51-34.38c13.63-17.45,8.99-49.84-8.59-60.48c-11.53-6.98-20.93-13.39-19.12-28.61
		c-1.56,5.62-3.13,11.24-4.6,16.52c-31.02,0.4-53.34,10.71-61.83,42.43c-3.99,14.9-14.3,7.53-20.08,5.76
		c5.04-13.88,10.14-26.56,13.99-39.61c0.75-2.56-3.06-6.75-5.42-9.66c-0.41-0.51-5.47,1.09-5.98,2.55
		c-6.7,19.33-22.98,16.96-37.16,14.94c-25.35-3.61-50.36-8.21-72.8,2.75c-9.08-8.85-16.56-16.13-24.03-23.41
		c-0.78,0.81-1.55,1.62-2.33,2.44c1.22,7.12,2.44,14.23,3.2,18.62c-19.47-3.62-37.84-9.59-56.28-9.81
		c-22.75-0.27-32.83,18.74-42.04,38.16c-7.7-12.92-11.1-28.88-30.03-27.79c-1.75,4.92-3.33,9.37-4,11.26
		c-13.07-5.01-24.9-10.57-37.32-13.94c-8.48-2.3-14.31,2.6-11.82,12.09c3.28,12.49,7.67,24.7,11.92,38.11
		c-4.12,1.01-9.69,2.37-15.26,3.73c-1.13,1.6-2.27,3.2-3.4,4.8c8.76,7.65,17.51,15.29,25.83,22.56
		c-44.51,23.91-22.53,58.35-11.45,91.79c-4.12-1.02-6.08-1.99-7.97-1.88c-4.21,0.24-8.39,1.02-12.58,1.58
		c1.2,4.51,1.16,10.08,3.89,13.3c4.4,5.18,10.63,8.81,16.09,13.09c-1.24,0.08-2.47,0.16-3.71,0.24
		c-0.01,21.06-0.17,42.11,0.05,63.17c0.09,9.13,2.43,18.5,0.95,27.29c-1.02,6.04-6.72,11.36-10.58,16.82
		c-2.01,2.83-4.58,5.26-6.9,7.87c3.72,2.02,8.2,6.52,11.03,5.65c13-4,25.54-9.5,38.51-14.57c1.65,5.69,10.01,15.99-5.66,20.2
		c-31.45,8.45-42.78,30.19-41.82,60.82c-4.66,1.85-9.13,3.62-9.96,3.95c5.24,4.24,12.81,7.97,16.87,14.04
		c20.97,31.42,61.03,31.67,80.49-0.73c7.02-11.69,11.31-24.98,17.23-37.36c8.51-17.8,3.04-32.47-9.27-46.06
		c-5.14-5.68-9.65-11.92-14.45-17.91c1.24-0.93,2.49-1.87,3.73-2.8c9.3,11.89,20.01,22.97,27.46,35.93
		c5.81,10.12,10.35,17.31,22.82,10.3c3.97,6.92,7.31,12.75,11.21,19.55c17.12-19.58,11.46-41.88,11.98-62.45
		c0.13-5.24-8.78-11.55-14.68-15.79c-3.97-2.85-9.93-2.92-15.41-4.34c16.88-17.9,25.22-44.58,54.98-45.18
		c0.67-0.01,1.31-1.47,1.97-2.25L222.38,290.08z"/>
	<path class="st1" d="M222.71,289.76c-0.66,0.78-1.3,2.23-1.97,2.25c-29.75,0.59-38.1,27.28-54.98,45.18
		c5.48,1.42,11.45,1.49,15.41,4.34c5.89,4.24,14.81,10.55,14.68,15.79c-0.52,20.57,5.14,42.87-11.98,62.45
		c-3.9-6.8-7.24-12.63-11.21-19.55c-12.48,7.01-17.01-0.18-22.82-10.3c-7.44-12.96-18.15-24.04-27.46-35.93
		c-1.24,0.93-2.49,1.87-3.73,2.8c4.8,5.99,9.31,12.23,14.45,17.91c12.31,13.59,17.78,28.26,9.27,46.06
		c-5.92,12.38-10.22,25.67-17.23,37.36c-19.45,32.4-59.52,32.15-80.49,0.73c-4.06-6.08-21.4-6.61-26.64-10.84
		c0.83-0.33,15.07-5.3,19.73-7.15c-0.96-30.63,10.37-52.36,41.82-60.82c15.68-4.21,7.31-14.51,5.66-20.2
		C72.24,364.9,59.7,370.4,46.7,374.4c-2.83,0.87-7.31-3.62-11.03-5.65c2.32-2.61,4.89-5.04,6.9-7.87
		c3.87-5.46,9.57-10.78,10.58-16.82c1.48-8.79-0.86-18.16-0.95-27.29c-0.21-21.05-0.06-42.11-0.05-63.17
		c1.24-0.08,2.47-0.16,3.71-0.24c-5.46-4.28-11.69-7.91-16.09-13.09c-2.73-3.21-2.69-8.79-3.89-13.3c4.19-0.56,8.37-1.34,12.58-1.58
		c1.9-0.11,3.85,0.86,7.97,1.88c-11.09-33.43-33.06-67.88,11.45-91.79c-8.32-7.27-17.07-14.91-25.83-22.56
		c1.13-1.6,2.27-3.2,3.4-4.8c5.57-1.36,11.14-2.73,15.26-3.73c-4.26-13.41-8.65-25.61-11.92-38.11
		c-2.49-9.49,3.34-14.39,11.82-12.09c12.42,3.37,24.25,8.93,37.32,13.94c0.67-1.89,2.25-6.34,4-11.26
		c18.92-1.09,22.32,14.87,30.03,27.79c9.21-19.42,19.29-38.43,42.04-38.16c18.44,0.22,36.81,6.19,56.28,9.81
		c-0.75-4.39-1.98-11.5-3.2-18.62c0.78-0.81,1.55-1.62,2.33-2.44c7.48,7.28,14.95,14.56,24.03,23.41
		c22.44-10.97,47.46-6.36,72.8-2.75c14.18,2.02,30.45,4.38,37.16-14.94c0.51-1.46,5.57-3.06,5.98-2.55
		c2.36,2.91,6.17,7.11,5.42,9.66c-3.85,13.05-8.94,25.74-13.99,39.61c5.78,1.77,16.09,9.14,20.08-5.76
		c8.49-31.72,30.81-42.03,61.83-42.43C444.18,34.23,453.44,20.62,455,15c-1.82,15.23-0.11,29.63,11.42,36.6
		c17.58,10.64,22.22,43.03,8.59,60.48c-18.38,23.52-44.13,34.4-73.51,34.38c-8.25-0.01-16.99-5.93-24.59-10.62
		c-7.65-4.73-14.17-11.3-21.18-17.06c-1.03,1.29-2.06,2.58-3.1,3.87c16.36,12.54,32.72,25.08,50.83,38.97
		c-0.35,2.13-1.13,6.94-2.1,12.96c5.77,3.04,11.9,6.28,21.39,11.28c-9.2,4.11-15.6,8.65-22.52,9.69
		c-12.97,1.95-26.35,3.25-39.37,2.29c-16.81-1.24-20.4-15.63-23.04-29.04c-12.55,8.15-25.98,14.25-35.61,24.08
		c-6.02,6.14-6.33,17.89-9.82,29.11c7.42-0.79,11.57-1.24,15.71-1.68c0.76,1.29,1.51,2.59,2.27,3.88
		c-10.77,8.5-21.53,16.99-33.84,26.7c4.41,6.25,10.86,14.43,16.13,23.3c2.24,3.77,2.02,8.99,2.92,13.56
		c-4.73-0.13-9.86,0.89-14.1-0.61c-10.03-3.54-19.63-8.28-30.75-13.12c-2.82,8.4-5.33,15.85-7.84,23.31
		c-6.84-2.41-13.69-4.83-20.53-7.24c-2.87-11.64-5.73-23.28-8.6-34.93c-0.99,1.27-1.98,2.53-2.97,3.8
		c-10.12-5.45-21.84-9.16-30.01-16.72c-16.22-15.01-35.74-20.26-56.1-11.63c-11.73,4.97-13.07,7.94-9.67,21.47
		c28.16-28.48,37.82-28.1,64.82,2.61c2.35,2.67,4,6.14,6.74,8.25C198.47,272.08,210.64,280.85,222.71,289.76z M256.4,185.73
		c1.42,9.7,2.84,19.4,4.6,31.45c7.47,1.78,17.01,4.06,26.56,6.33c-8.56-15.22-13.32-32.34-31.45-37.46
		c-1.58-2.4-2.76-5.24-4.81-7.14c-27.75-25.77-27.92-34.89-0.98-60.15c0.55-0.52,0.39-1.8,0.52-2.73
		c-23.77-1.64-32.03,26.38-19.81,65.84C239.72,183.19,248.05,184.46,256.4,185.73z M253.79,248.17
		c-12.26-6.94-20.41,3.15-24.95,9.96c-3.44,5.15,1.21,15.69,2.27,23.84c12.3-19.85,12.3-19.85,44.71-14.44
		c-5.33-4.05-10.67-8.11-16-12.16c4.62-8.02,9.24-16.05,14.24-24.73c-4.48,0.29-12.36-0.33-19.23,2
		C252.95,233.26,254.06,242.74,253.79,248.17z M235,227c-0.84-11.73-21-51-28-68c-4.24-10.3-9.66-20.61-14-30
		c-4.28-9.25-11.17-19.8-14.35-28.39c-4.15,10.95-8.31,20.1-11.01,29.67c-1.65,5.85-1.99,12.46-1.17,18.49
		c0.76,5.55,3.85,10.79,7.95,21.48c-29.62-11.25-52.32-3.87-73.46,11.69C129.03,202.44,203.57,224.72,235,227z M65.14,116.94
		c18.3,12.94,35.26,12.59,52.51,9.33c2.3-0.43,5.73-3.76,5.77-5.8c0.36-17.02-1.41-33.64-13.01-52.13
		c-2.04,13.95-3.4,23.29-5.31,36.37C92.47,86.44,84.36,66.99,60.76,65.18C59,87.41,76.17,97.66,88.18,112.23
		C80.11,113.88,74.21,115.09,65.14,116.94z M65.08,357.13c13.65-11.94,18.5-35.29,11.34-53c-3.38-8.35-5.43-17.63-6.05-26.62
		c-1.62-23.65,6.5-31.48,29.85-30.37c1.59-6.64,3.19-13.32,4.77-20c-33.2,12.39-46.53,33.49-44,69.61
		C62.38,316.93,63.72,337.13,65.08,357.13z M246.92,101.76c-1.36-21.88,5.62-30.12,26.85-28.97c11.42,0.62,23.15,3.51,33.82,7.7
		c14.35,5.63,41.41-1.43,49.32-13.34c-15.61-0.88-32.19-2.1-48.8-2.67c-12.17-0.42-24.58-1.42-36.51,0.35
		c-24.08,3.56-36.35,20.83-46.21,42.35C233.56,105.12,239.75,103.56,246.92,101.76z M395.29,186.61c-5.95-7-9.76-11.48-14.08-16.56
		c3.33-1.98,5.59-3.32,8.28-4.92c-12.33-9.07-24.16-17.78-37.51-27.61c-0.93,11.49-1.89,20.07-2.26,28.66
		c-0.7,16.5,5.42,21.98,21.43,20.53C378.16,186.08,385.28,186.61,395.29,186.61z M187.82,392.92c-2.61-13.82-0.77-32.96-8.75-38.89
		c-9.67-7.19-27.63-3.22-45.5-4.28c11.87,15.23,20.31,26.06,28.75,36.88c0.56-1.34,1.12-2.67,1.68-4.01
		C170.6,385.47,177.2,388.33,187.82,392.92z M165.78,257.46c-13.89-19.73-23.16-20.8-36.83-3.26
		c-8.86,11.37-15.79,24.24-25.51,39.44c14.67,0.01,25.57,0.01,34.42,0.01c-1.74-5.67-6.77-13.09-4.87-17.57
		C138.64,262.77,149.1,254.17,165.78,257.46z M257.83,168.15c-4.94-17,4.21-26.91,16.32-32.68c5.06-2.41,13.56,2.43,19.16,3.68
		c0-8.77,0.01-19.66,0.01-33.56c-14.74,9.21-27.32,15.87-38.54,24.34C235.96,144.14,236.64,152.16,257.83,168.15z M379.9,112.88
		c17.86,20.94,62.75,12.63,77.61-12.38c6.85-11.53,3.31-21.71-8.55-33.45c3.15,23-5.61,37.13-21.92,46.54
		c-3.8,2.19-11.97,3.52-13.67,1.5C402.46,102.13,391.49,110.89,379.9,112.88z M109.93,376.18c-0.2,13.84-10.5,26,3.52,36.92
		c1.79,1.4-0.71,10.38-3.15,14.78c-9.12,16.41-25.05,20.86-44.28,20.6c14.25,12.71,28.08,12.85,39.54,2.12
		C125.84,431.62,128.48,401.59,109.93,376.18z M385.71,101.28c7.72-4.02,12.96-6.75,18.08-9.41c15.95,15.81,15.95,15.81,20.88,8.89
		c-3.59-10.29-8.45-18.01-8.34-25.65c0.11-7.82,5.1-15.56,7.61-22.42C402.16,58.81,400.17,61.16,385.71,101.28z M89.81,402.73
		c2.96-5.91,5.46-10.89,9.07-18.11c-42.34,16.57-51.15,25.62-49.11,49.14c1.03-12.24,7.88-18.1,18.88-18.95
		c11.1-0.86,22.49-1.42,26.78,12.82C104.33,417.98,104.33,417.98,89.81,402.73z M314.74,139.91c-9.51,10.33-18.99,20.64-27.24,29.61
		c23.68,2.25,40.46-21.61,31.35-52.87c-5.09,2.81-9.67,5.33-14.24,7.85C308.11,129.82,311.61,135.15,314.74,139.91z M75.32,222.91
		c1.15,1.21,2.3,2.41,3.45,3.62c14.83-6.96,29.67-13.92,45.76-21.48c-8.85-3.44-16.65-6.47-26.23-10.2
		C101.26,212.95,87.58,217.37,75.32,222.91z M202.72,134.22c4.92-13.55,8.79-24.19,12.94-35.64c-8.52,1.3-15.54,2.37-22.91,3.5
		C196.06,112.75,199.02,122.29,202.72,134.22z M141.52,318.47c18.34-2.83,26.37-11.29,27.44-28.01
		C159.43,298.76,141.98,300.55,141.52,318.47z M140,138c36-15,20.65-40.98,4-52C143.34,97.49,140.84,123.46,140,138z M93,145
		c-3,0-15.15,1.52-16,3c5.2,3.6,22.88,19.02,27.62,18.49c6.15-0.68,26.6-17.43,32.38-21.49c-0.71-1.02-10,0-15,0
		C112.59,145,102.41,145,93,145z M99.56,277.17c1.41-0.71,2.82-1.42,4.23-2.13c-4.77-6.12-9.54-12.24-16.6-21.29
		c-3.11,8.04-5.23,13.52-7.37,19.06C87.71,274.55,93.64,275.86,99.56,277.17z M271.63,81.94c-5.3,2.35-10.15,4.5-15,6.65
		c8.87,3.41,7.88,21.52,20.59,14.18C275.4,96.01,273.87,90.3,271.63,81.94z M114.55,315.55c0.74,1.65,1.47,3.29,2.21,4.94
		c6.17,0.3,12.33,0.59,18.5,0.89c0.88-1.36,1.76-2.72,2.64-4.07c-4.57-4.22-9.13-8.44-13.7-12.66
		C120.99,308.28,117.77,311.91,114.55,315.55z M177.82,85.21c1.28-6.17,2.35-11.31,4.04-19.41C173.06,70.66,167,74,158,78.97
		C166.9,81.77,171.95,83.36,177.82,85.21z M305.53,90.4c-1.84,1.34-3.68,2.67-5.52,4.01c4.79,6.59,9.59,13.19,14.38,19.78
		c1.8-1.31,3.59-2.62,5.39-3.93C315.04,103.64,310.29,97.02,305.53,90.4z M82.3,433.51c-14.05-10.98-18.18-9.37-20.48,5.91
		C69.31,437.26,75.8,435.39,82.3,433.51z"/>
</g>
</svg>
