<?xml version="1.0" encoding="iso-8859-1"?>
<!-- Generator: Adobe Illustrator 19.0.0, SVG Export Plug-In . SVG Version: 6.00 Build 0)  -->
<svg version="1.1" id="Capa_1" xmlns="http://www.w3.org/2000/svg" xmlns:xlink="http://www.w3.org/1999/xlink" x="0px" y="0px"
	 viewBox="0 0 412.424 412.424" style="enable-background:new 0 0 412.424 412.424;" xml:space="preserve">
<g>
	<g>
		<path d="M372.992,49.424h-60.78V10c0-5.523-4.477-10-10-10c-5.523,0-10,4.477-10,10v39.424h-171V10c0-5.523-4.477-10-10-10
			s-10,4.477-10,10v39.424h-61.78c-17.635,0-32.22,13.924-32.22,31.558v299.885c0,17.635,14.585,31.557,32.22,31.557h333.56
			c17.635,0,32.22-13.922,32.22-31.557V80.982C405.212,63.348,390.627,49.424,372.992,49.424z M385.212,380.867
			c0,6.606-5.613,11.557-12.22,11.557H39.432c-6.607,0-12.22-4.951-12.22-11.557V155.424h358V380.867z M385.212,135.424h-358V80.982
			c0-6.606,5.613-11.558,12.22-11.558h61.78v29.418c0,5.523,4.477,10,10,10s10-4.477,10-10V69.424h171v29.418
			c0,5.523,4.477,10,10,10c5.523,0,10-4.477,10-10V69.424h60.78c6.607,0,12.22,4.952,12.22,11.558V135.424z"/>
	</g>
</g>
<g>
	<g>
		<path d="M241.212,174.424h-69c-5.523,0-10,4.477-10,10v69c0,5.523,4.477,10,10,10h69c5.523,0,10-4.477,10-10v-69
			C251.212,178.901,246.735,174.424,241.212,174.424z M231.212,243.424h-49v-49h49V243.424z"/>
	</g>
</g>
<g>
	<g>
		<path d="M131.212,174.424h-69c-5.523,0-10,4.477-10,10v69c0,5.523,4.477,10,10,10h69c5.523,0,10-4.477,10-10v-69
			C141.212,178.901,136.735,174.424,131.212,174.424z M122.212,243.424h-50v-49h50V243.424z"/>
	</g>
</g>
<g>
	<g>
		<path d="M350.212,174.424h-69c-5.523,0-10,4.477-10,10v69c0,5.523,4.477,10,10,10h69c5.523,0,10-4.477,10-10v-69
			C360.212,178.901,355.735,174.424,350.212,174.424z M341.212,243.424h-50v-49h50V243.424z"/>
	</g>
</g>
<g>
	<g>
		<path d="M241.212,280.424h-69c-5.523,0-10,4.477-10,10v69c0,5.523,4.477,10,10,10h69c5.523,0,10-4.477,10-10v-69
			C251.212,284.901,246.735,280.424,241.212,280.424z M231.212,349.424h-49v-49h49V349.424z"/>
	</g>
</g>
<g>
	<g>
		<path d="M131.212,280.424h-69c-5.523,0-10,4.477-10,10v69c0,5.523,4.477,10,10,10h69c5.523,0,10-4.477,10-10v-69
			C141.212,284.901,136.735,280.424,131.212,280.424z M122.212,349.424h-50v-49h50V349.424z"/>
	</g>
</g>
<g>
	<g>
		<path d="M350.212,280.424h-69c-5.523,0-10,4.477-10,10v69c0,5.523,4.477,10,10,10h69c5.523,0,10-4.477,10-10v-69
			C360.212,284.901,355.735,280.424,350.212,280.424z M341.212,349.424h-50v-49h50V349.424z"/>
	</g>
</g>
<g>
</g>
<g>
</g>
<g>
</g>
<g>
</g>
<g>
</g>
<g>
</g>
<g>
</g>
<g>
</g>
<g>
</g>
<g>
</g>
<g>
</g>
<g>
</g>
<g>
</g>
<g>
</g>
<g>
</g>
</svg>
