<svg width="102" height="91" viewBox="0 0 102 91" fill="none" xmlns="http://www.w3.org/2000/svg">
<path fill-rule="evenodd" clip-rule="evenodd" d="M83.0226 85.6985C83.0226 88.0787 80.3535 90.02 77.0572 90.02H25.2892C21.9928 90.02 19.3238 88.0787 19.3238 85.6985V83.1664C19.3238 80.7919 21.9928 78.8506 25.2892 78.8506H77.0572C80.3535 78.8506 83.0226 80.7919 83.0226 83.1664V85.6985Z" fill="white"/>
<path fill-rule="evenodd" clip-rule="evenodd" d="M83.0226 85.6985C83.0226 88.0787 80.3535 90.02 77.0572 90.02H25.2892C21.9928 90.02 19.3238 88.0787 19.3238 85.6985V83.1664C19.3238 80.7919 21.9928 78.8506 25.2892 78.8506H77.0572C80.3535 78.8506 83.0226 80.7919 83.0226 83.1664V85.6985Z" fill="white" fill-opacity="0.2"/>
<path fill-rule="evenodd" clip-rule="evenodd" d="M79.7836 73.0312H22.703L9.09537 30.188L16.3985 26.1985L35.6707 50.1185L47.0125 17.1167H56.0886L66.2911 52.116L86.6963 26.1985L93.3913 30.188L79.7836 73.0312Z" fill="white"/>
<path fill-rule="evenodd" clip-rule="evenodd" d="M79.7836 73.0312H22.703L9.09537 30.188L16.3985 26.1985L35.6707 50.1185L47.0125 17.1167H56.0886L66.2911 52.116L86.6963 26.1985L93.3913 30.188L79.7836 73.0312Z" fill="white" fill-opacity="0.2"/>
<path d="M95.8043 22.1476C99.2261 22.1476 102 19.709 102 16.7007C102 13.6925 99.2261 11.2539 95.8043 11.2539C92.3824 11.2539 89.6085 13.6925 89.6085 16.7007C89.6085 19.709 92.3824 22.1476 95.8043 22.1476Z" fill="white"/>
<path d="M95.8043 22.1476C99.2261 22.1476 102 19.709 102 16.7007C102 13.6925 99.2261 11.2539 95.8043 11.2539C92.3824 11.2539 89.6085 13.6925 89.6085 16.7007C89.6085 19.709 92.3824 22.1476 95.8043 22.1476Z" fill="white" fill-opacity="0.2"/>
<path d="M50.9744 10.8487C54.3821 10.8487 57.1446 8.42011 57.1446 5.42433C57.1446 2.42856 54.3821 0 50.9744 0C47.5667 0 44.8042 2.42856 44.8042 5.42433C44.8042 8.42011 47.5667 10.8487 50.9744 10.8487Z" fill="white"/>
<path d="M50.9744 10.8487C54.3821 10.8487 57.1446 8.42011 57.1446 5.42433C57.1446 2.42856 54.3821 0 50.9744 0C47.5667 0 44.8042 2.42856 44.8042 5.42433C44.8042 8.42011 47.5667 10.8487 50.9744 10.8487Z" fill="white" fill-opacity="0.2"/>
<path d="M6.29179 22.2151C9.76665 22.2151 12.5836 19.7614 12.5836 16.7345C12.5836 13.7077 9.76665 11.2539 6.29179 11.2539C2.81693 11.2539 0 13.7077 0 16.7345C0 19.7614 2.81693 22.2151 6.29179 22.2151Z" fill="white"/>
<path d="M6.29179 22.2151C9.76665 22.2151 12.5836 19.7614 12.5836 16.7345C12.5836 13.7077 9.76665 11.2539 6.29179 11.2539C2.81693 11.2539 0 13.7077 0 16.7345C0 19.7614 2.81693 22.2151 6.29179 22.2151Z" fill="white" fill-opacity="0.2"/>
</svg>
