<?xml version="1.0" encoding="utf-8"?>
<svg viewBox="0 0 125 61" fill="none" xmlns="http://www.w3.org/2000/svg">
  <defs>
    <clipPath id="clip0_270_1252">
      <rect width="150" height="70" fill="white" transform="translate(0 12.3569) rotate(-13.6149)"/>
    </clipPath>
  </defs>
  <g clip-path="url(#clip0_270_1252)">
    <path d="M29.3071 9.54275L13.1202 13.4632C12.047 13.7232 11.1209 14.3988 10.5458 15.3415C9.97072 16.2843 9.79366 17.4168 10.0536 18.4901L17.8946 50.8639C18.1545 51.9371 18.8302 52.8632 19.7729 53.4383C20.7156 54.0134 21.8482 54.1904 22.9214 53.9305L47.2018 48.0497C48.275 47.7898 49.2011 47.1142 49.7762 46.1714C50.3513 45.2287 50.5283 44.0962 50.2684 43.0229L44.3876 18.7426L29.3071 9.54275ZM26.7533 41.1054C27.3178 43.4363 26.4 44.5197 24.6053 44.9544C24.1804 45.0573 23.6043 45.1198 23.2122 45.0841L23.0554 43.5433C23.3329 43.5661 23.6754 43.5474 24.0396 43.4592C24.8166 43.271 25.2149 42.8018 24.9062 41.5271L23.6599 36.3817L25.5032 35.9352L26.7553 41.1049L26.7533 41.1054ZM33.2394 38.7526C32.7497 39.4989 31.8841 39.9934 30.7915 40.258C30.5487 40.3168 30.3267 40.3556 30.1509 40.3725L30.859 43.2962L29.0258 43.7402L27.0715 35.6711C27.8689 35.346 28.6918 35.0873 29.5317 34.8974C30.6708 34.6215 31.5367 34.641 32.1868 34.9462C32.8108 35.2321 33.3275 35.8266 33.5216 36.6279C33.7157 37.4292 33.6112 38.1742 33.2394 38.7526ZM42.8195 40.0031C42.3 40.3346 41.2822 40.8638 40.2017 41.1255C38.7105 41.4867 37.5389 41.3721 36.6098 40.826C35.6885 40.3036 35.0175 39.3373 34.7365 38.133C34.0921 35.4101 35.691 33.3799 38.374 32.7301C39.4281 32.4748 40.294 32.4857 40.7392 32.5814L40.711 34.154C40.2147 34.0686 39.6201 34.0455 38.7217 34.2631C37.1819 34.6361 36.2262 35.7929 36.6554 37.5654C37.0637 39.2508 38.363 39.99 39.8765 39.6235C40.3034 39.5201 40.6295 39.3897 40.7591 39.279L40.3445 37.5673L39.0819 37.8731L38.7325 36.4304L41.7757 35.6934L42.8195 40.0031ZM32.7375 23.7063L30.7142 24.1963L28.2639 14.0795L40.831 21.746L32.7375 23.7063Z" fill="#D7B6B7"/>
    <path d="M29.965 36.2706C29.5886 36.3617 29.3425 36.4599 29.2198 36.5282L29.8044 38.942C29.9691 38.9407 30.1678 38.9033 30.4369 38.8381C31.4162 38.6009 31.9026 37.9562 31.7002 37.1205C31.5179 36.3678 30.8896 36.0466 29.965 36.2706Z" fill="#D7B6B7"/>
    <path d="M21.6445 33.9443C21.2741 33.8313 21.0123 33.7907 20.8719 33.787L20.1474 36.1627C20.2898 36.2453 20.4799 36.3141 20.7428 36.3943C21.7086 36.6888 22.4554 36.3812 22.7062 35.5588C22.9315 34.82 22.5526 34.2212 21.6445 33.9443Z" fill="#D7B6B7" transform="matrix(1, 0, 0, 1, 39.245578, 0.250337) translate(20 0)"/>
    <path d="M41.6641 12.6779L25.7336 7.81938C24.6773 7.49724 23.5364 7.60788 22.5617 8.12698C21.587 8.64608 20.8585 9.5311 20.5363 10.5874L10.8192 42.4483C10.4971 43.5046 10.6077 44.6455 11.1268 45.6202C11.6459 46.5949 12.5309 47.3234 13.5872 47.6456L37.4829 54.9334C38.5392 55.2556 39.6801 55.1449 40.6548 54.6258C41.6295 54.1067 42.358 53.2217 42.6802 52.1655L49.968 28.2697L41.6641 12.6779ZM23.201 37.747C22.3998 38.1403 21.401 38.1252 20.3277 37.7979C20.0887 37.725 19.8759 37.6449 19.7179 37.5706L18.8404 40.448L17.0362 39.8978L19.4576 31.9584C20.3089 32.0839 21.1483 32.2795 21.9673 32.5432C23.0884 32.8851 23.8259 33.3429 24.2304 33.9364C24.6203 34.4993 24.7627 35.2741 24.5222 36.0626C24.2817 36.8512 23.8174 37.4387 23.201 37.747ZM30.6423 44.0496L28.7306 43.4666L27.9595 39.836C27.744 38.83 27.5347 37.6322 27.4303 36.5687L27.3888 36.5691C27.1123 37.647 26.79 38.7893 26.3898 40.1016L25.65 42.527L23.9773 42.0169L26.4321 33.968L28.5569 34.616L29.3301 38.0753C29.5493 39.0693 29.7191 40.2181 29.8013 41.2335L29.8391 41.245C30.0633 40.0951 30.3531 38.959 30.7071 37.8423L31.425 35.4886L33.0977 35.9987L30.6423 44.0496ZM39.057 46.2111C38.1023 46.2337 37.1498 46.1105 36.2322 45.8459C34.7646 45.3983 33.8142 44.7036 33.2901 43.7602C32.7627 42.8419 32.6765 41.6686 33.0492 40.4894C33.8774 37.8167 36.2887 36.8827 38.9292 37.688C39.9667 38.0044 40.7066 38.4543 41.0412 38.7631L40.2169 40.1028C39.8332 39.7768 39.3309 39.4538 38.4488 39.1848C36.9314 38.722 35.522 39.2324 34.99 40.9768C34.4841 42.6356 35.2248 43.9323 36.7163 44.3872C37.1345 44.5147 37.4836 44.569 37.6494 44.539L38.1632 42.8544L36.9206 42.4754L37.3537 41.0556L40.3506 41.9696L39.057 46.2111ZM37.4128 26.6171L35.4215 26.0098L38.4581 16.0532L45.3781 29.0464L37.4128 26.6171Z" fill="#D7B6B7" transform="matrix(1, 0, 0, 1, 39.245578, 0.250337) translate(20 0)"/>
  </g>
</svg>