<?xml version="1.0" encoding="UTF-8"?>
<svg width="700pt" height="700pt" version="1.1" viewBox="0 0 700 700" xmlns="http://www.w3.org/2000/svg" xmlns:xlink="http://www.w3.org/1999/xlink">

 <g>
  <path fill="#fff" d="m161.55 47.414c0.66016 0.17188 1.3203 0.35938 1.9805 0.51953 7.293 1.7969 12.5 8.1484 12.789 15.613 0.30078 7.668-4.2891 14.293-11.562 16.699-0.47656 0.15625-0.94531 0.32031-1.7656 0.59375 1.2695 4.4258 2.3008 8.9375 3.8633 13.262 8.3164 23.062 16.605 46.133 25.289 69.047 2.1094 5.5664 5.6172 10.613 8.6367 15.809 0.76562 1.3164 2.043 2.3867 3.2383 3.3867 2.3398 1.9492 5.0234 2.4922 7.9336 1.4375 1.4727-0.53125 2.9531-1.0625 4.3867-1.6953 3.3203-1.4688 6.668-1.4883 10.109-0.46094 7.8359 2.3477 14.863 6.3711 21.801 10.543 18.598 11.188 36.07 24.023 53.391 37.062 37.117 27.934 73.074 57.332 109.2 86.531 24.824 20.07 49.758 40.02 74.688 59.965 1.3008 1.043 1.7656 2.0508 1.6055 3.6328-0.73437 7.2461-2.8008 14.141-5.4805 20.859-6.5195 16.312-16.066 30.801-26.977 44.445-13.848 17.32-29.281 32.996-47.82 45.375-15.059 10.062-31.176 17.734-48.984 21.531-2.8789 0.61719-5.8281 0.87891-8.7266 1.3984-1.4453 0.25781-2.0781-0.33984-2.6875-1.5898-12.305-25.137-24.656-50.25-37-75.363-36.031-73.32-72.066-146.64-108.1-219.96-0.32422-0.66016-0.67578-1.3047-1.3047-1.8828 0.26953 2.6328 0.51953 5.2656 0.8125 7.8945 1.3555 12.359 2.7109 24.719 4.082 37.078 1.457 13.105 2.9453 26.207 4.3906 39.316 1.3203 11.984 2.5977 23.973 3.9102 35.957 1.0195 9.3633 2.0117 18.73 3.1406 28.086 0.17969 1.4609-0.21875 2.3477-1.1914 3.2773-8.0938 7.75-17.758 12.633-28.5 15.457-17.07 4.4844-34.027 3.1367-50.781-1.6133-16.574-4.6992-31.438-12.582-43.695-24.91-4.0078-4.0273-7.5312-8.4375-9.6094-13.832-0.375-0.98047-0.69531-1.9805-1.043-2.9688v-3.0195c1.3203-2.4688 2.4531-5.0664 3.9883-7.3984 10.461-15.812 20.727-31.762 31.586-47.297 16.445-23.531 33.488-46.641 52.406-68.293 5.1523-5.8906 10.254-11.906 17.297-15.848-0.054687-0.28125-0.085937-0.59375-0.17188-0.88672-11.465-38.113-22.922-76.227-34.441-114.32-0.29297-0.95703-1.1016-1.9219-1.9336-2.5312-5.7773-4.2734-8.4766-9.9023-7.1836-17.023 1.2266-6.7812 5.3984-11.145 11.984-13.184 0.76563-0.23438 1.5273-0.46484 2.2969-0.69922h4.1562zm310.55 340.56c0.09375-6.707-2.9844-9.5547-8.4336-8.7266-2.582 0.39062-5.2969 0.83984-7.5977 1.9727-6.0703 2.9727-12.266 5.8633-17.84 9.625-24.199 16.301-44.566 36.691-62.262 59.793-6.1953 8.0859-11.871 16.543-15.742 26.027-1.2656 3.1016-2.1797 6.4297-2.7109 9.7383-0.86719 5.4219 2.1172 8.6289 7.5586 8.4297 1.8555-0.066406 3.7461-0.45312 5.5312-0.99219 8.4609-2.5469 15.898-7.125 23.062-12.129 21.27-14.879 39.613-32.867 55.867-53.031 7.3398-9.1094 14.074-18.652 19.023-29.32 1.8398-3.9883 3.4258-8.0859 3.543-11.387zm-357.98-59.812c-3.6523 0.23438-7.2188 0.15625-10.656 0.77734-3.4102 0.61719-6.8203 1.6523-9.9805 3.0586-2.5352 1.1328-3.1797 3.5234-2.1094 6.082 0.71875 1.707 1.7031 3.375 2.8711 4.8086 4.0664 4.9961 9.2383 8.7031 14.762 11.879 23.105 13.281 47.941 18.531 74.445 15.551 5.6211-0.63281 11.148-1.8867 16.238-4.5078 6.7461-3.4727 7.4258-7.7578 1.5781-12.531-3.5156-2.8711-7.4375-5.4375-11.535-7.3711-23.965-11.316-49.375-16.555-75.613-17.746zm37.578-263.93c-0.015625 4.3867 3.4258 7.9336 7.7852 8.0117 4.3398 0.085938 8.0938-3.6328 8.0703-7.9922-0.023438-4.3359-3.5859-7.8438-7.9531-7.8516-4.4297 0.003907-7.8867 3.418-7.9023 7.832z"/>
  <path fill="#fff" d="m611.02 397.49c-2.3398 0.054687-4.1875-1.0625-5.9922-2.3984-25.473-18.918-50.965-37.816-76.453-56.723-106.43-78.941-212.86-157.89-319.32-236.8-2.7656-2.0508-4.9766-4.2773-4.8398-7.9727 0.11719-3.1406 1.5742-5.5508 4.4062-6.9492 3.0312-1.5 5.9805-1.1641 8.6953 0.83594 5.4648 4.0195 10.902 8.082 16.352 12.125 98.613 73.145 197.22 146.29 295.84 219.43 28.414 21.074 56.824 42.152 85.25 63.207 3.1094 2.3008 4.7539 5.1289 3.8477 9.0664-0.83203 3.6289-4.0625 6.168-7.7852 6.1875z"/>

 </g>
</svg>
