<?xml version="1.0" encoding="UTF-8" standalone="no"?>
<svg
   width="31"
   height="31"
   viewBox="0 0 31 31"
   fill="none"
   version="1.1"
   id="svg6"
   sodipodi:docname="instagram.svg"
   inkscape:version="1.1.2 (08b2f3d93c, 2022-04-05)"
   xmlns:inkscape="http://www.inkscape.org/namespaces/inkscape"
   xmlns:sodipodi="http://sodipodi.sourceforge.net/DTD/sodipodi-0.dtd"
   xmlns="http://www.w3.org/2000/svg"
   xmlns:svg="http://www.w3.org/2000/svg">
  <defs
     id="defs10" />
  <sodipodi:namedview
     id="namedview8"
     pagecolor="#ffffff"
     bordercolor="#666666"
     borderopacity="1.0"
     inkscape:pageshadow="2"
     inkscape:pageopacity="0.0"
     inkscape:pagecheckerboard="0"
     showgrid="false"
     inkscape:zoom="10.129032"
     inkscape:cx="0.6910828"
     inkscape:cy="13.871019"
     inkscape:window-width="1600"
     inkscape:window-height="800"
     inkscape:window-x="0"
     inkscape:window-y="27"
     inkscape:window-maximized="1"
     inkscape:current-layer="svg6" />
  <path
     d="M23.7344 31H7.26562C3.25936 31 0 27.7406 0 23.7344V7.26562C0 3.25936 3.25936 0 7.26562 0H23.7344C27.7406 0 31 3.25936 31 7.26562V23.7344C31 27.7406 27.7406 31 23.7344 31ZM7.26562 2.42188C4.59478 2.42188 2.42188 4.59478 2.42188 7.26562V23.7344C2.42188 26.4052 4.59478 28.5781 7.26562 28.5781H23.7344C26.4052 28.5781 28.5781 26.4052 28.5781 23.7344V7.26562C28.5781 4.59478 26.4052 2.42188 23.7344 2.42188H7.26562ZM24.0371 5.44922C23.2011 5.44922 22.5234 6.12692 22.5234 6.96289C22.5234 7.79886 23.2011 8.47656 24.0371 8.47656C24.8731 8.47656 25.5508 7.79886 25.5508 6.96289C25.5508 6.12692 24.8731 5.44922 24.0371 5.44922ZM15.5 23.3711C11.1598 23.3711 7.62891 19.8402 7.62891 15.5C8.06121 5.0579 22.9404 5.06093 23.3711 15.5001C23.3711 19.8402 19.8402 23.3711 15.5 23.3711ZM15.5 10.0508C12.4953 10.0508 10.0508 12.4953 10.0508 15.5C10.3501 22.7291 20.651 22.727 20.9492 15.4999C20.9492 12.4953 18.5047 10.0508 15.5 10.0508Z"
     fill="#830009"
     id="path2" />
  <path
     d="M23.7344 31H7.26562C3.25936 31 0 27.7406 0 23.7344V7.26562C0 3.25936 3.25936 0 7.26562 0H23.7344C27.7406 0 31 3.25936 31 7.26562V23.7344C31 27.7406 27.7406 31 23.7344 31ZM7.26562 2.42188C4.59478 2.42188 2.42188 4.59478 2.42188 7.26562V23.7344C2.42188 26.4052 4.59478 28.5781 7.26562 28.5781H23.7344C26.4052 28.5781 28.5781 26.4052 28.5781 23.7344V7.26562C28.5781 4.59478 26.4052 2.42188 23.7344 2.42188H7.26562ZM24.0371 5.44922C23.2011 5.44922 22.5234 6.12692 22.5234 6.96289C22.5234 7.79886 23.2011 8.47656 24.0371 8.47656C24.8731 8.47656 25.5508 7.79886 25.5508 6.96289C25.5508 6.12692 24.8731 5.44922 24.0371 5.44922ZM15.5 23.3711C11.1598 23.3711 7.62891 19.8402 7.62891 15.5C8.06121 5.0579 22.9404 5.06093 23.3711 15.5001C23.3711 19.8402 19.8402 23.3711 15.5 23.3711ZM15.5 10.0508C12.4953 10.0508 10.0508 12.4953 10.0508 15.5C10.3501 22.7291 20.651 22.727 20.9492 15.4999C20.9492 12.4953 18.5047 10.0508 15.5 10.0508Z"
     fill="white"
     fill-opacity="0.2"
     id="path4"
     style="fill:#830009;fill-opacity:0.2" />
</svg>
