<svg width="22" height="22" viewBox="0 0 22 22" fill="none" xmlns="http://www.w3.org/2000/svg">
<path d="M16.8438 22H5.15625C2.31309 22 0 19.6869 0 16.8438V5.15625C0 2.31309 2.31309 0 5.15625 0H16.8438C19.6869 0 22 2.31309 22 5.15625V16.8438C22 19.6869 19.6869 22 16.8438 22ZM5.15625 1.71875C3.26081 1.71875 1.71875 3.26081 1.71875 5.15625V16.8438C1.71875 18.7392 3.26081 20.2812 5.15625 20.2812H16.8438C18.7392 20.2812 20.2812 18.7392 20.2812 16.8438V5.15625C20.2812 3.26081 18.7392 1.71875 16.8438 1.71875H5.15625ZM17.0586 3.86719C16.4653 3.86719 15.9844 4.34814 15.9844 4.94141C15.9844 5.53468 16.4653 6.01562 17.0586 6.01562C17.6519 6.01562 18.1328 5.53468 18.1328 4.94141C18.1328 4.34814 17.6519 3.86719 17.0586 3.86719ZM11 16.5859C7.91987 16.5859 5.41406 14.0801 5.41406 11C5.72086 3.58948 16.2803 3.59163 16.5859 11C16.5859 14.0801 14.0801 16.5859 11 16.5859ZM11 7.13281C8.86763 7.13281 7.13281 8.86763 7.13281 11C7.34525 16.1303 14.6555 16.1288 14.8672 11C14.8672 8.86763 13.1324 7.13281 11 7.13281Z" fill="#830009"/>
<path d="M16.8438 22H5.15625C2.31309 22 0 19.6869 0 16.8438V5.15625C0 2.31309 2.31309 0 5.15625 0H16.8438C19.6869 0 22 2.31309 22 5.15625V16.8438C22 19.6869 19.6869 22 16.8438 22ZM5.15625 1.71875C3.26081 1.71875 1.71875 3.26081 1.71875 5.15625V16.8438C1.71875 18.7392 3.26081 20.2812 5.15625 20.2812H16.8438C18.7392 20.2812 20.2812 18.7392 20.2812 16.8438V5.15625C20.2812 3.26081 18.7392 1.71875 16.8438 1.71875H5.15625ZM17.0586 3.86719C16.4653 3.86719 15.9844 4.34814 15.9844 4.94141C15.9844 5.53468 16.4653 6.01562 17.0586 6.01562C17.6519 6.01562 18.1328 5.53468 18.1328 4.94141C18.1328 4.34814 17.6519 3.86719 17.0586 3.86719ZM11 16.5859C7.91987 16.5859 5.41406 14.0801 5.41406 11C5.72086 3.58948 16.2803 3.59163 16.5859 11C16.5859 14.0801 14.0801 16.5859 11 16.5859ZM11 7.13281C8.86763 7.13281 7.13281 8.86763 7.13281 11C7.34525 16.1303 14.6555 16.1288 14.8672 11C14.8672 8.86763 13.1324 7.13281 11 7.13281Z" fill="white" fill-opacity="0.2"/>
</svg>
