<svg width="100" height="109" viewBox="0 0 100 109" fill="none" xmlns="http://www.w3.org/2000/svg">
<path fill-rule="evenodd" clip-rule="evenodd" d="M97.7079 26.8353C96.5653 25.6922 94.9852 24.9823 93.2453 24.9823H66.0821V9.8215C66.0821 4.59791 61.829 0.345306 56.6059 0.345306H9.86731C4.64414 0.345306 0.391113 4.59791 0.391113 9.8215V99.0638C0.391113 104.059 4.47964 108.158 9.48473 108.158H56.9876C61.9936 108.158 66.0808 104.07 66.0808 99.0638V77.2043H93.2448C94.9852 77.2043 96.5653 76.494 97.7079 75.3509C98.8523 74.2074 99.5617 72.6278 99.5617 70.887V31.2996C99.5617 29.5589 98.8527 27.9792 97.7079 26.8353V26.8353ZM20.2816 6.66263H46.1819V10.2682C46.1819 11.7525 44.9557 12.9791 43.4718 12.9791H22.9929C21.5078 12.9791 20.2829 11.7525 20.2829 10.2682V6.66263H20.2816ZM59.7639 99.0638C59.7639 100.583 58.5057 101.841 56.9876 101.841H9.48473C7.97089 101.841 6.70886 100.601 6.70886 99.0638V87.7519C8.418 88.679 10.3726 89.2067 12.4458 89.2067H54.0194C56.0942 89.2067 58.0531 88.6769 59.7639 87.7468V99.0638ZM54.0194 82.8894H12.4458C10.8531 82.8894 9.41303 82.2507 8.3754 81.219C7.41074 80.2615 6.78773 78.9603 6.70886 77.5173V9.8215C6.70886 8.08537 8.13202 6.66263 9.86731 6.66263H13.9651V10.2682C13.9651 15.2404 18.0216 19.2964 22.9929 19.2964H43.4718C48.4432 19.2964 52.4996 15.2404 52.4996 10.2682V6.66263H56.6055C58.3407 6.66263 59.7639 8.08537 59.7639 9.8215V24.9823H30.2842C28.5438 24.9823 26.9629 25.6922 25.8198 26.8353C24.6763 27.9792 23.9664 29.5589 23.9664 31.2996V70.887C23.9664 72.6278 24.6763 74.2074 25.8198 75.3509C26.9629 76.494 28.5438 77.2043 30.2842 77.2043H59.7639C59.7639 80.359 57.1829 82.8894 54.0194 82.8894V82.8894ZM93.2448 70.8861C93.2453 70.887 93.2461 70.887 93.2448 70.887C93.2448 70.8883 93.2448 70.8878 93.2448 70.887H30.2846C30.2846 69.7022 30.2842 42.7085 30.2846 31.2996C44.2264 31.2996 93.2461 31.2996 93.2448 31.3001V70.8861Z" fill="#830009"/>
<path fill-rule="evenodd" clip-rule="evenodd" d="M33.237 92.4706C31.4971 92.4706 30.0781 93.8891 30.0781 95.629C30.0781 97.3685 31.4971 98.7879 33.237 98.7879C34.9769 98.7879 36.3955 97.3685 36.3955 95.629C36.3955 93.8891 34.9769 92.4706 33.237 92.4706Z" fill="#830009"/>
<path fill-rule="evenodd" clip-rule="evenodd" d="M39.7595 49.1984H41.4442C43.1888 49.1984 44.6026 47.7836 44.6026 46.0395C44.6026 44.2949 43.1888 42.881 41.4442 42.881H39.7595C38.0158 42.881 36.6011 44.2949 36.6011 46.0395C36.6011 47.7836 38.0158 49.1984 39.7595 49.1984V49.1984Z" fill="#830009"/>
<path fill-rule="evenodd" clip-rule="evenodd" d="M39.7595 61.8322H70.503C72.248 61.8322 73.6614 60.4183 73.6614 58.6737C73.6614 56.93 72.248 55.5153 70.503 55.5153H39.7595C38.0158 55.5153 36.6011 56.93 36.6011 58.6737C36.6011 60.4183 38.0158 61.8322 39.7595 61.8322V61.8322Z" fill="#830009"/>
<path fill-rule="evenodd" clip-rule="evenodd" d="M54.0787 49.1984H55.7626C57.5075 49.1984 58.9218 47.7836 58.9218 46.0395C58.9218 44.2949 57.5075 42.881 55.7626 42.881H54.0787C52.3346 42.881 50.9194 44.2949 50.9194 46.0395C50.9194 47.7836 52.3346 49.1984 54.0787 49.1984V49.1984Z" fill="#830009"/>
<path fill-rule="evenodd" clip-rule="evenodd" d="M68.3972 49.1984H70.0819C71.826 49.1984 73.2403 47.7836 73.2403 46.0395C73.2403 44.2949 71.826 42.881 70.0819 42.881H68.3972C66.6535 42.881 65.2388 44.2949 65.2388 46.0395C65.2388 47.7836 66.6535 49.1984 68.3972 49.1984V49.1984Z" fill="#830009"/>
<path fill-rule="evenodd" clip-rule="evenodd" d="M82.716 49.1984H84.4003C86.1453 49.1984 87.5591 47.7836 87.5591 46.0395C87.5591 44.2949 86.1453 42.881 84.4003 42.881H82.716C80.9723 42.881 79.5571 44.2949 79.5571 46.0395C79.5571 47.7836 80.9723 49.1984 82.716 49.1984V49.1984Z" fill="#830009"/>
</svg>
