<svg width="30" height="30" viewBox="0 0 30 30" fill="none" xmlns="http://www.w3.org/2000/svg">
<path d="M22.0887 0H7.90839C3.47419 0 0 3.47516 0 7.91032V22.0906C0 26.5258 3.47419 30 7.90839 30H22.0887C26.5248 30 30 26.5258 30 22.0897V7.91032C30 3.47516 26.5248 0 22.0887 0ZM28.0645 22.0897C28.0645 25.4952 25.4961 28.0635 22.0887 28.0635H7.90839C4.5029 28.0635 1.93548 25.4961 1.93548 22.0897V7.91032C1.93548 4.50387 4.5029 1.93548 7.90839 1.93548H22.0887C25.4961 1.93548 28.0645 4.50387 28.0645 7.91032V22.0897Z" fill="#830009"/>
<path d="M22.0887 0H7.90839C3.47419 0 0 3.47516 0 7.91032V22.0906C0 26.5258 3.47419 30 7.90839 30H22.0887C26.5248 30 30 26.5258 30 22.0897V7.91032C30 3.47516 26.5248 0 22.0887 0ZM28.0645 22.0897C28.0645 25.4952 25.4961 28.0635 22.0887 28.0635H7.90839C4.5029 28.0635 1.93548 25.4961 1.93548 22.0897V7.91032C1.93548 4.50387 4.5029 1.93548 7.90839 1.93548H22.0887C25.4961 1.93548 28.0645 4.50387 28.0645 7.91032V22.0897Z" fill="white" fill-opacity="0.2"/>
<path d="M15.4278 6.13721C10.4294 6.13721 7.90936 9.60559 7.90936 12.4972C7.90936 14.2488 8.59452 15.8059 10.0626 16.3875C10.1245 16.4117 10.1855 16.4243 10.2426 16.4243C10.4071 16.4243 10.5397 16.3237 10.59 16.132C10.6394 15.954 10.7536 15.504 10.8058 15.3143C10.8755 15.0588 10.8494 14.9708 10.6548 14.7482C10.231 14.2643 9.95904 13.6382 9.95904 12.7527C9.95904 10.1785 11.9507 7.87624 15.1403 7.87624C17.9652 7.87624 19.5174 9.54656 19.5174 11.7772C19.5174 14.7124 18.1752 17.1908 16.1826 17.1908C15.0803 17.1908 14.2578 16.3091 14.5219 15.2291C14.8384 13.9391 15.4519 12.5475 15.4519 11.6175C15.4519 10.7833 14.9884 10.0895 14.0323 10.0895C12.9058 10.0895 12.0019 11.2149 12.0019 12.7246C12.0019 13.6846 12.3378 14.3359 12.3378 14.3359C12.3378 14.3359 11.1881 19.0566 10.9858 19.884C10.5832 21.5301 10.9248 23.5488 10.9539 23.752C10.9636 23.8246 11.0255 23.8643 11.0894 23.8643C11.1319 23.8643 11.1755 23.8469 11.2036 23.8101C11.3081 23.6804 12.6474 22.0788 13.1032 20.4782C13.2339 20.0253 13.8436 17.6804 13.8436 17.6804C14.2094 18.3549 15.2778 18.9482 16.4148 18.9482C19.7961 18.9482 22.0907 15.9666 22.0907 11.9727C22.0897 8.95043 19.4468 6.13721 15.4278 6.13721Z" fill="#830009"/>
<path d="M15.4278 6.13721C10.4294 6.13721 7.90936 9.60559 7.90936 12.4972C7.90936 14.2488 8.59452 15.8059 10.0626 16.3875C10.1245 16.4117 10.1855 16.4243 10.2426 16.4243C10.4071 16.4243 10.5397 16.3237 10.59 16.132C10.6394 15.954 10.7536 15.504 10.8058 15.3143C10.8755 15.0588 10.8494 14.9708 10.6548 14.7482C10.231 14.2643 9.95904 13.6382 9.95904 12.7527C9.95904 10.1785 11.9507 7.87624 15.1403 7.87624C17.9652 7.87624 19.5174 9.54656 19.5174 11.7772C19.5174 14.7124 18.1752 17.1908 16.1826 17.1908C15.0803 17.1908 14.2578 16.3091 14.5219 15.2291C14.8384 13.9391 15.4519 12.5475 15.4519 11.6175C15.4519 10.7833 14.9884 10.0895 14.0323 10.0895C12.9058 10.0895 12.0019 11.2149 12.0019 12.7246C12.0019 13.6846 12.3378 14.3359 12.3378 14.3359C12.3378 14.3359 11.1881 19.0566 10.9858 19.884C10.5832 21.5301 10.9248 23.5488 10.9539 23.752C10.9636 23.8246 11.0255 23.8643 11.0894 23.8643C11.1319 23.8643 11.1755 23.8469 11.2036 23.8101C11.3081 23.6804 12.6474 22.0788 13.1032 20.4782C13.2339 20.0253 13.8436 17.6804 13.8436 17.6804C14.2094 18.3549 15.2778 18.9482 16.4148 18.9482C19.7961 18.9482 22.0907 15.9666 22.0907 11.9727C22.0897 8.95043 19.4468 6.13721 15.4278 6.13721Z" fill="white" fill-opacity="0.2"/>
</svg>
