<svg width="123" height="123" viewBox="0 0 123 123" fill="none" xmlns="http://www.w3.org/2000/svg">
<g opacity="0.9">
<path d="M0 0V42.5769H42.5769V0H0ZM52.0385 0V9.46154H61.5V0H52.0385ZM61.5 9.46154V18.9231H52.0385V37.8462H61.5V28.3846H70.9615V9.46154H61.5ZM61.5 37.8462V52.0385H18.9231V61.5H9.46154V70.9615H28.3846V61.5H37.8462V70.9615H61.5V61.5H70.9615V70.9615H85.1538V61.5H94.6154V52.0385H70.9615V37.8462H61.5ZM94.6154 61.5V70.9615H123V61.5H113.538V52.0385H104.077V61.5H94.6154ZM9.46154 61.5V52.0385H0V61.5H9.46154ZM80.4231 0V42.5769H123V0H80.4231ZM9.46154 9.46154H33.1154V33.1154H9.46154V9.46154ZM89.8846 9.46154H113.538V33.1154H89.8846V9.46154ZM14.1923 14.1923V28.3846H28.3846V14.1923H14.1923ZM94.6154 14.1923V28.3846H108.808V14.1923H94.6154ZM52.0385 75.6923V85.1538H61.5V75.6923H52.0385ZM61.5 85.1538V94.6154H52.0385V113.538H61.5V104.077H80.4231V94.6154H89.8846V85.1538H99.3462V94.6154H89.8846V104.077H80.4231V123H89.8846V113.538H99.3462V104.077H104.077V113.538H99.3462V123H108.808V113.538H113.538V104.077H123V85.1538H113.538V75.6923H80.4231V85.1538H61.5ZM113.538 113.538V123H123V113.538H113.538ZM61.5 113.538V123H70.9615V113.538H61.5ZM0 80.4231V123H42.5769V80.4231H0ZM9.46154 89.8846H33.1154V113.538H9.46154V89.8846ZM14.1923 94.6154V108.808H28.3846V94.6154H14.1923Z" fill="#B8000C"/>
<path d="M0 0V42.5769H42.5769V0H0ZM52.0385 0V9.46154H61.5V0H52.0385ZM61.5 9.46154V18.9231H52.0385V37.8462H61.5V28.3846H70.9615V9.46154H61.5ZM61.5 37.8462V52.0385H18.9231V61.5H9.46154V70.9615H28.3846V61.5H37.8462V70.9615H61.5V61.5H70.9615V70.9615H85.1538V61.5H94.6154V52.0385H70.9615V37.8462H61.5ZM94.6154 61.5V70.9615H123V61.5H113.538V52.0385H104.077V61.5H94.6154ZM9.46154 61.5V52.0385H0V61.5H9.46154ZM80.4231 0V42.5769H123V0H80.4231ZM9.46154 9.46154H33.1154V33.1154H9.46154V9.46154ZM89.8846 9.46154H113.538V33.1154H89.8846V9.46154ZM14.1923 14.1923V28.3846H28.3846V14.1923H14.1923ZM94.6154 14.1923V28.3846H108.808V14.1923H94.6154ZM52.0385 75.6923V85.1538H61.5V75.6923H52.0385ZM61.5 85.1538V94.6154H52.0385V113.538H61.5V104.077H80.4231V94.6154H89.8846V85.1538H99.3462V94.6154H89.8846V104.077H80.4231V123H89.8846V113.538H99.3462V104.077H104.077V113.538H99.3462V123H108.808V113.538H113.538V104.077H123V85.1538H113.538V75.6923H80.4231V85.1538H61.5ZM113.538 113.538V123H123V113.538H113.538ZM61.5 113.538V123H70.9615V113.538H61.5ZM0 80.4231V123H42.5769V80.4231H0ZM9.46154 89.8846H33.1154V113.538H9.46154V89.8846ZM14.1923 94.6154V108.808H28.3846V94.6154H14.1923Z" fill="white" fill-opacity="0.4"/>
</g>
</svg>
