<svg width="22" height="22" viewBox="0 0 22 22" fill="none" xmlns="http://www.w3.org/2000/svg">
<path d="M16.1899 0H5.81013C2.552 0 0 2.552 0 5.81013V16.1899C0 19.448 2.552 22 5.81013 22H16.1899C19.448 22 22 19.448 22 16.1899V5.81013C22 2.552 19.4473 0 16.1899 0ZM20.5806 16.1899C20.5806 18.6525 18.6517 20.5806 16.1899 20.5806H5.81013C3.34826 20.5806 1.41935 18.6517 1.41935 16.1899V5.81013C1.41935 3.34826 3.34826 1.41935 5.81013 1.41935H16.1899C18.6525 1.41935 20.5806 3.34826 20.5806 5.81013V16.1899Z" fill="#830009"/>
<path d="M16.1899 0H5.81013C2.552 0 0 2.552 0 5.81013V16.1899C0 19.448 2.552 22 5.81013 22H16.1899C19.448 22 22 19.448 22 16.1899V5.81013C22 2.552 19.4473 0 16.1899 0ZM20.5806 16.1899C20.5806 18.6525 18.6517 20.5806 16.1899 20.5806H5.81013C3.34826 20.5806 1.41935 18.6517 1.41935 16.1899V5.81013C1.41935 3.34826 3.34826 1.41935 5.81013 1.41935H16.1899C18.6525 1.41935 20.5806 3.34826 20.5806 5.81013V16.1899Z" fill="white" fill-opacity="0.2"/>
<path d="M17.9187 5.61704C17.6909 5.45027 17.3857 5.43607 17.1423 5.57801C16.8996 5.72065 16.3616 5.79091 15.9301 5.84768C15.8407 5.85975 15.7527 5.8711 15.6676 5.88317C15.0636 5.38214 14.2922 5.1011 13.4967 5.1011C11.7047 5.1011 10.2343 6.48781 10.1299 8.2322C8.50479 7.95827 7.01659 7.11091 5.96201 5.83775C5.80518 5.64756 5.56176 5.55459 5.31621 5.58652C5.07208 5.62059 4.86343 5.77885 4.76479 6.00452C4.71937 6.10814 4.32337 7.08252 4.32337 9.49259C4.32337 11.5797 5.97053 13.1134 7.10034 13.9203C6.3275 14.2716 5.43685 14.4007 4.59092 14.307C4.26021 14.2716 3.95079 14.466 3.8415 14.7776C3.73221 15.0898 3.85285 15.4361 4.13247 15.6128C5.46666 16.4545 7.00879 16.8995 8.59279 16.8995C13.6798 16.8995 16.7583 12.9033 16.8726 8.96317C17.0188 8.75098 17.2977 8.33794 17.7689 7.61336C17.9577 7.32168 18.1159 6.69291 18.1933 6.34446C18.255 6.0691 18.1465 5.7831 17.9187 5.61704ZM15.5923 8.31807C15.505 8.43872 15.4575 8.58491 15.4575 8.73394C15.4575 11.535 13.3278 15.4801 8.5935 15.4801C8.16556 15.4801 7.74117 15.4411 7.3253 15.3645C7.88027 15.1544 8.40472 14.8613 8.88659 14.4901C9.07963 14.3418 9.18253 14.1034 9.15982 13.8614C9.13711 13.6194 8.99163 13.405 8.77376 13.295C8.74324 13.2794 5.74343 11.7018 5.74343 9.4933C5.74343 8.7531 5.78317 8.17117 5.83569 7.72833C7.22879 8.92769 9.00156 9.64517 10.8673 9.73743C10.8815 9.73814 10.8964 9.73885 10.9099 9.73814C11.3229 9.72607 11.6267 9.42304 11.6267 9.02846C11.6267 8.93052 11.6068 8.83756 11.5706 8.75239C11.5529 8.64594 11.5436 8.53878 11.5436 8.43162C11.5436 7.37775 12.4194 6.52046 13.4967 6.52046C14.0374 6.52046 14.5576 6.74188 14.9245 7.12723C15.092 7.30181 15.3369 7.38059 15.5732 7.33446C15.7343 7.30394 15.9202 7.27981 16.1154 7.25427C16.1849 7.24504 16.2552 7.23581 16.3269 7.22588C15.7939 8.03775 15.6016 8.3053 15.5923 8.31807Z" fill="#830009"/>
<path d="M17.9187 5.61704C17.6909 5.45027 17.3857 5.43607 17.1423 5.57801C16.8996 5.72065 16.3616 5.79091 15.9301 5.84768C15.8407 5.85975 15.7527 5.8711 15.6676 5.88317C15.0636 5.38214 14.2922 5.1011 13.4967 5.1011C11.7047 5.1011 10.2343 6.48781 10.1299 8.2322C8.50479 7.95827 7.01659 7.11091 5.96201 5.83775C5.80518 5.64756 5.56176 5.55459 5.31621 5.58652C5.07208 5.62059 4.86343 5.77885 4.76479 6.00452C4.71937 6.10814 4.32337 7.08252 4.32337 9.49259C4.32337 11.5797 5.97053 13.1134 7.10034 13.9203C6.3275 14.2716 5.43685 14.4007 4.59092 14.307C4.26021 14.2716 3.95079 14.466 3.8415 14.7776C3.73221 15.0898 3.85285 15.4361 4.13247 15.6128C5.46666 16.4545 7.00879 16.8995 8.59279 16.8995C13.6798 16.8995 16.7583 12.9033 16.8726 8.96317C17.0188 8.75098 17.2977 8.33794 17.7689 7.61336C17.9577 7.32168 18.1159 6.69291 18.1933 6.34446C18.255 6.0691 18.1465 5.7831 17.9187 5.61704ZM15.5923 8.31807C15.505 8.43872 15.4575 8.58491 15.4575 8.73394C15.4575 11.535 13.3278 15.4801 8.5935 15.4801C8.16556 15.4801 7.74117 15.4411 7.3253 15.3645C7.88027 15.1544 8.40472 14.8613 8.88659 14.4901C9.07963 14.3418 9.18253 14.1034 9.15982 13.8614C9.13711 13.6194 8.99163 13.405 8.77376 13.295C8.74324 13.2794 5.74343 11.7018 5.74343 9.4933C5.74343 8.7531 5.78317 8.17117 5.83569 7.72833C7.22879 8.92769 9.00156 9.64517 10.8673 9.73743C10.8815 9.73814 10.8964 9.73885 10.9099 9.73814C11.3229 9.72607 11.6267 9.42304 11.6267 9.02846C11.6267 8.93052 11.6068 8.83756 11.5706 8.75239C11.5529 8.64594 11.5436 8.53878 11.5436 8.43162C11.5436 7.37775 12.4194 6.52046 13.4967 6.52046C14.0374 6.52046 14.5576 6.74188 14.9245 7.12723C15.092 7.30181 15.3369 7.38059 15.5732 7.33446C15.7343 7.30394 15.9202 7.27981 16.1154 7.25427C16.1849 7.24504 16.2552 7.23581 16.3269 7.22588C15.7939 8.03775 15.6016 8.3053 15.5923 8.31807Z" fill="white" fill-opacity="0.2"/>
</svg>
