<?xml version="1.0" encoding="UTF-8" standalone="no"?>
<svg
   width="30"
   height="30"
   viewBox="0 0 30 30"
   fill="none"
   version="1.1"
   id="svg10"
   sodipodi:docname="twitter.svg"
   inkscape:version="1.1.2 (08b2f3d93c, 2022-04-05)"
   xmlns:inkscape="http://www.inkscape.org/namespaces/inkscape"
   xmlns:sodipodi="http://sodipodi.sourceforge.net/DTD/sodipodi-0.dtd"
   xmlns="http://www.w3.org/2000/svg"
   xmlns:svg="http://www.w3.org/2000/svg">
  <defs
     id="defs14" />
  <sodipodi:namedview
     id="namedview12"
     pagecolor="#ffffff"
     bordercolor="#666666"
     borderopacity="1.0"
     inkscape:pageshadow="2"
     inkscape:pageopacity="0.0"
     inkscape:pagecheckerboard="0"
     showgrid="false"
     inkscape:zoom="7.401051"
     inkscape:cx="-11.079508"
     inkscape:cy="16.821935"
     inkscape:window-width="1600"
     inkscape:window-height="800"
     inkscape:window-x="0"
     inkscape:window-y="27"
     inkscape:window-maximized="1"
     inkscape:current-layer="svg10" />
  <path
     d="M22.0771 0H7.9229C3.48 0 0 3.48 0 7.9229V22.0771C0 26.52 3.48 30 7.9229 30H22.0771C26.52 30 30 26.52 30 22.0771V7.9229C30 3.48 26.519 0 22.0771 0ZM28.0645 22.0771C28.0645 25.4352 25.4342 28.0645 22.0771 28.0645H7.9229C4.56581 28.0645 1.93548 25.4342 1.93548 22.0771V7.9229C1.93548 4.56581 4.56581 1.93548 7.9229 1.93548H22.0771C25.4352 1.93548 28.0645 4.56581 28.0645 7.9229V22.0771Z"
     fill="#830009"
     id="path2" />
  <path
     d="M22.0771 0H7.9229C3.48 0 0 3.48 0 7.9229V22.0771C0 26.52 3.48 30 7.9229 30H22.0771C26.52 30 30 26.52 30 22.0771V7.9229C30 3.48 26.519 0 22.0771 0ZM28.0645 22.0771C28.0645 25.4352 25.4342 28.0645 22.0771 28.0645H7.9229C4.56581 28.0645 1.93548 25.4342 1.93548 22.0771V7.9229C1.93548 4.56581 4.56581 1.93548 7.9229 1.93548H22.0771C25.4352 1.93548 28.0645 4.56581 28.0645 7.9229V22.0771Z"
     fill="white"
     fill-opacity="0.2"
     id="path4"
     style="fill:#830009;fill-opacity:0.2" />
  <path
     d="M24.4345 7.6596C24.1239 7.43218 23.7078 7.41283 23.3758 7.60638C23.0449 7.80089 22.3113 7.8967 21.7229 7.97412C21.601 7.99057 21.481 8.00605 21.3649 8.02251C20.5413 7.33928 19.4894 6.95605 18.4045 6.95605C15.961 6.95605 13.9558 8.84702 13.8136 11.2257C11.5974 10.8522 9.56808 9.6967 8.13002 7.96057C7.91614 7.70122 7.58421 7.57444 7.24937 7.61799C6.91647 7.66444 6.63195 7.88025 6.49743 8.18799C6.4355 8.32928 5.8955 9.65799 5.8955 12.9444C5.8955 15.7906 8.14163 17.8819 9.68227 18.9822C8.6284 19.4612 7.41389 19.6373 6.26034 19.5096C5.80937 19.4612 5.38743 19.7264 5.2384 20.1512C5.08937 20.577 5.25389 21.0493 5.63518 21.2902C7.45453 22.438 9.55744 23.0448 11.7174 23.0448C18.6542 23.0448 22.8523 17.5954 23.0081 12.2225C23.2074 11.9332 23.5878 11.3699 24.2303 10.3819C24.4878 9.98412 24.7036 9.1267 24.8091 8.65154C24.8932 8.27605 24.7452 7.88605 24.4345 7.6596ZM21.2623 11.3428C21.1432 11.5073 21.0784 11.7067 21.0784 11.9099C21.0784 15.7296 18.1742 21.1093 11.7184 21.1093C11.1349 21.1093 10.5561 21.0561 9.98905 20.9515C10.7458 20.6651 11.461 20.2654 12.1181 19.7593C12.3813 19.557 12.5216 19.2319 12.4907 18.9019C12.4597 18.5719 12.2613 18.2796 11.9642 18.1296C11.9226 18.1083 7.83195 15.957 7.83195 12.9454C7.83195 11.9361 7.88614 11.1425 7.95776 10.5386C9.85744 12.1741 12.2749 13.1525 14.819 13.2783C14.8384 13.2793 14.8587 13.2802 14.8771 13.2793C15.4403 13.2628 15.8545 12.8496 15.8545 12.3115C15.8545 12.178 15.8274 12.0512 15.7781 11.9351C15.7539 11.7899 15.7413 11.6438 15.7413 11.4977C15.7413 10.0606 16.9355 8.89154 18.4045 8.89154C19.142 8.89154 19.8513 9.19347 20.3516 9.71896C20.58 9.95702 20.9139 10.0644 21.2361 10.0015C21.4558 9.95993 21.7094 9.92702 21.9755 9.89218C22.0703 9.8796 22.1661 9.86702 22.2639 9.85347C21.5371 10.9606 21.2749 11.3254 21.2623 11.3428Z"
     fill="#830009"
     id="path6" />
  <path
     d="M24.4345 7.6596C24.1239 7.43218 23.7078 7.41283 23.3758 7.60638C23.0449 7.80089 22.3113 7.8967 21.7229 7.97412C21.601 7.99057 21.481 8.00605 21.3649 8.02251C20.5413 7.33928 19.4894 6.95605 18.4045 6.95605C15.961 6.95605 13.9558 8.84702 13.8136 11.2257C11.5974 10.8522 9.56808 9.6967 8.13002 7.96057C7.91614 7.70122 7.58421 7.57444 7.24937 7.61799C6.91647 7.66444 6.63195 7.88025 6.49743 8.18799C6.4355 8.32928 5.8955 9.65799 5.8955 12.9444C5.8955 15.7906 8.14163 17.8819 9.68227 18.9822C8.6284 19.4612 7.41389 19.6373 6.26034 19.5096C5.80937 19.4612 5.38743 19.7264 5.2384 20.1512C5.08937 20.577 5.25389 21.0493 5.63518 21.2902C7.45453 22.438 9.55744 23.0448 11.7174 23.0448C18.6542 23.0448 22.8523 17.5954 23.0081 12.2225C23.2074 11.9332 23.5878 11.3699 24.2303 10.3819C24.4878 9.98412 24.7036 9.1267 24.8091 8.65154C24.8932 8.27605 24.7452 7.88605 24.4345 7.6596ZM21.2623 11.3428C21.1432 11.5073 21.0784 11.7067 21.0784 11.9099C21.0784 15.7296 18.1742 21.1093 11.7184 21.1093C11.1349 21.1093 10.5561 21.0561 9.98905 20.9515C10.7458 20.6651 11.461 20.2654 12.1181 19.7593C12.3813 19.557 12.5216 19.2319 12.4907 18.9019C12.4597 18.5719 12.2613 18.2796 11.9642 18.1296C11.9226 18.1083 7.83195 15.957 7.83195 12.9454C7.83195 11.9361 7.88614 11.1425 7.95776 10.5386C9.85744 12.1741 12.2749 13.1525 14.819 13.2783C14.8384 13.2793 14.8587 13.2802 14.8771 13.2793C15.4403 13.2628 15.8545 12.8496 15.8545 12.3115C15.8545 12.178 15.8274 12.0512 15.7781 11.9351C15.7539 11.7899 15.7413 11.6438 15.7413 11.4977C15.7413 10.0606 16.9355 8.89154 18.4045 8.89154C19.142 8.89154 19.8513 9.19347 20.3516 9.71896C20.58 9.95702 20.9139 10.0644 21.2361 10.0015C21.4558 9.95993 21.7094 9.92702 21.9755 9.89218C22.0703 9.8796 22.1661 9.86702 22.2639 9.85347C21.5371 10.9606 21.2749 11.3254 21.2623 11.3428Z"
     fill="white"
     fill-opacity="0.2"
     id="path8"
     style="fill:#830009;fill-opacity:0.2" />
</svg>
