<?xml version="1.0" encoding="UTF-8" standalone="no"?>
<svg
   width="22"
   height="22"
   viewBox="0 0 22 22"
   fill="none"
   version="1.1"
   id="svg6"
   sodipodi:docname="whatsapp.svg"
   inkscape:version="1.1.2 (08b2f3d93c, 2022-04-05)"
   xmlns:inkscape="http://www.inkscape.org/namespaces/inkscape"
   xmlns:sodipodi="http://sodipodi.sourceforge.net/DTD/sodipodi-0.dtd"
   xmlns="http://www.w3.org/2000/svg"
   xmlns:svg="http://www.w3.org/2000/svg">
  <defs
     id="defs10" />
  <sodipodi:namedview
     id="namedview8"
     pagecolor="#ffffff"
     bordercolor="#666666"
     borderopacity="1.0"
     inkscape:pageshadow="2"
     inkscape:pageopacity="0.0"
     inkscape:pagecheckerboard="0"
     showgrid="false"
     inkscape:zoom="28.545455"
     inkscape:cx="11"
     inkscape:cy="6.638535"
     inkscape:window-width="1600"
     inkscape:window-height="800"
     inkscape:window-x="0"
     inkscape:window-y="27"
     inkscape:window-maximized="1"
     inkscape:current-layer="svg6" />
  <path
     d="m 11.2359,19.1536 h 10e-5 0.0033 c 1.8363,-10e-5 3.6214,-0.606 5.0783,-1.7238 1.457,-1.1178 2.5044,-2.6851 2.98,-4.4588 C 19.7732,11.1973 19.6503,9.31623 18.948,7.61946 18.2457,5.9227 17.0033,4.50502 15.4133,3.58624 13.8233,2.66745 11.9746,2.29889 10.1539,2.5377 8.33311,2.7765 6.64199,3.60933 5.34271,4.90706 4.04344,6.20479 3.2086,7.89492 2.96763,9.7154 2.7359,11.466 3.06579,13.2431 3.90678,14.7918 l -1.05914,3.865 -0.22895,0.8355 0.83798,-0.2197 3.96981,-1.0408 c 1.17766,0.6051 2.48343,0.9216 3.80942,0.9218 z"
     stroke="#830009"
     id="path2"
     sodipodi:nodetypes="scscsscccccccccs" />
  <path
     d="M11.2426 4.29132C10.0777 4.29098 8.93401 4.60272 7.93044 5.19412C6.92687 5.78552 6.10006 6.63499 5.53601 7.65418C4.97195 8.67337 4.69124 9.82506 4.72306 10.9895C4.75489 12.1539 5.0981 13.2886 5.71699 14.2754L5.87209 14.5218L5.21316 16.9266L7.68058 16.2797L7.9182 16.4205C8.92265 17.0154 10.0686 17.3292 11.236 17.3292H11.2393C12.9683 17.3295 14.6267 16.6429 15.8495 15.4204C17.0724 14.198 17.7595 12.5399 17.7598 10.8108C17.7601 9.08173 17.0735 7.42336 15.8511 6.20051C14.6287 4.97767 12.9705 4.29051 11.2415 4.29022L11.2426 4.29132ZM15.0752 13.6088C14.931 13.8469 14.739 14.0526 14.5115 14.213C14.2839 14.3733 14.0256 14.4849 13.7529 14.5405C13.3411 14.6112 12.9185 14.5848 12.5186 14.4635C12.1394 14.3454 11.7667 14.2073 11.4021 14.0499C10.0487 13.3707 8.89515 12.3514 8.0546 11.0919C7.59607 10.5088 7.31774 9.80456 7.25376 9.06556C7.24848 8.76053 7.30679 8.45775 7.42497 8.17649C7.54315 7.89524 7.71862 7.64168 7.9402 7.43198C8.00568 7.35728 8.0859 7.29693 8.17582 7.25471C8.26574 7.21249 8.36342 7.18933 8.46272 7.18667C8.59253 7.18667 8.72344 7.18667 8.83784 7.19327C8.95885 7.19877 9.11946 7.14707 9.27786 7.52988C9.44287 7.9215 9.83449 8.88625 9.88289 8.98416C9.91396 9.03548 9.93174 9.09375 9.93462 9.15368C9.93751 9.2136 9.9254 9.2733 9.89939 9.32737C9.85004 9.44506 9.78411 9.55508 9.70359 9.65409C9.60458 9.7685 9.49787 9.9093 9.40987 9.99731C9.31087 10.0952 9.20966 10.2008 9.32297 10.3966C9.61726 10.9005 9.98464 11.358 10.4131 11.7541C10.878 12.1674 11.4115 12.4965 11.9895 12.7265C12.1853 12.8255 12.2997 12.8079 12.4141 12.677C12.5285 12.5461 12.9036 12.105 13.0346 11.9092C13.1655 11.7134 13.2953 11.7464 13.4746 11.8113C13.6539 11.8762 14.6186 12.3503 14.8144 12.4493C15.0103 12.5483 15.1412 12.5956 15.1896 12.677C15.2432 12.9921 15.2034 13.316 15.0752 13.6088Z"
     fill="#830009"
     id="path4" />
  <path
     style="fill:none;fill-opacity:0;stroke-width:0.0350318"
     d="M 4.6767516,21.959811 C 3.9583297,21.922801 3.3853245,21.830001 2.9476492,21.679777 1.5179633,21.189062 0.46240689,19.975899 0.16295795,18.479299 0.02971245,17.813359 0.02411423,17.494498 0.03133698,10.982484 0.03828315,4.719831 0.04757136,4.1830958 0.15968103,3.5658984 0.46150875,1.9042467 1.6990008,0.60418029 3.3638106,0.19975062 4.0353609,0.03661191 4.1084432,0.03503185 10.982484,0.03503185 c 6.702971,0 6.893022,0.0035503 7.549363,0.14102921 1.799523,0.37693248 3.130903,1.83996644 3.362461,3.69495804 0.08307,0.6654436 0.104264,2.1202945 0.104961,7.2037209 L 22,16.404258 l 0.226362,0.01441 c 0.124499,0.0079 0.236544,0.02459 0.248987,0.03704 0.04488,0.04488 -0.08348,1.961197 -0.134586,2.009326 -0.0044,0.0041 -0.114597,-0.0036 -0.24493,-0.01726 l -0.236969,-0.02476 -0.03717,0.141998 c -0.246484,0.94159 -0.589622,1.557298 -1.192884,2.140448 -0.722714,0.698618 -1.458037,1.043692 -2.552375,1.197782 -0.35817,0.05043 -1.112169,0.05732 -6.796178,0.06206 -3.5163219,0.0029 -6.4878983,4.62e-4 -6.6035034,-0.0055 z M 17.726115,20.963863 c 0.92514,-0.08609 1.509124,-0.311226 2.102143,-0.8104 0.631844,-0.531854 1.012559,-1.305799 1.12512,-2.287221 0.07015,-0.611622 0.0712,-13.1074318 0.0012,-13.731081 C 20.82135,2.9493154 20.27969,2.0547261 19.367731,1.514439 18.884987,1.228439 18.408911,1.0972548 17.621019,1.0331273 16.943763,0.9780045 4.2422484,1.0061485 3.9235669,1.0634781 3.1039767,1.2109193 2.5015159,1.5065919 2.0034823,2.0058075 1.4410836,2.569541 1.1518611,3.2235268 1.0452129,4.1726328 0.97637857,4.7852179 0.97660761,17.251759 1.0454651,17.864839 c 0.08309,0.739805 0.2908495,1.295296 0.6752551,1.80544 0.1161906,0.154197 0.2252371,0.280358 0.2423255,0.280358 0.017088,0 0.047131,-0.05912 0.066761,-0.131369 0.01963,-0.07225 0.333651,-1.217907 0.6978241,-2.545896 L 3.3897629,14.858846 3.2184392,14.47913 C 2.8793298,13.72754 2.6293944,12.879381 2.4977433,12.033439 2.4104266,11.472374 2.4107993,10.150606 2.4984349,9.5812102 2.7953598,7.651998 3.6659048,5.9153054 5.0095541,4.5716561 7.967451,1.6137593 12.595043,1.143059 16.08596,3.4450078 c 1.67596,1.1051457 2.932141,2.7567333 3.548043,4.6648557 0.297467,0.9215786 0.415598,1.6883157 0.415598,2.6974615 0,1.007023 -0.111532,1.744287 -0.400712,2.648837 -0.443696,1.38788 -1.125085,2.51533 -2.143313,3.546404 -1.402299,1.419991 -3.149989,2.287324 -5.174366,2.567906 -0.497203,0.06891 -1.813097,0.05943 -2.294586,-0.01654 C 9.1837564,19.419367 8.2959635,19.165714 7.6771256,18.879793 7.5339928,18.813662 7.3993991,18.758804 7.3780282,18.757887 c -0.109479,-0.0047 -5.2051485,1.353223 -5.1950011,1.384392 0.024169,0.07424 0.3675479,0.307594 0.6755903,0.459121 0.3748599,0.184396 0.8741023,0.316075 1.3627202,0.359428 0.5236424,0.04646 13.0079834,0.04927 13.5047774,0.003 z m -12.2139446,-2.728285 1.967129,-0.51691 0.2765526,0.138026 c 0.538127,0.268576 1.25167,0.516985 1.8428741,0.641569 0.7701739,0.162298 1.8645149,0.204648 2.6518679,0.102626 3.577861,-0.463606 6.370354,-3.290252 6.789382,-6.87242 C 19.392484,8.7149763 17.963264,5.7314379 15.407101,4.1447348 14.418773,3.5312438 13.2437,3.1277349 12.051874,2.9925816 11.475085,2.9271737 10.424934,2.9678033 9.843949,3.0780046 8.64853,3.3047518 7.5999165,3.745363 6.6735669,4.4101494 4.0121705,6.3200773 2.8176777,9.6263274 3.6398436,12.807226 c 0.1368228,0.529357 0.2743558,0.896643 0.5498669,1.468436 l 0.2279641,0.473114 -0.5448244,1.988081 c -0.2996536,1.093444 -0.5448247,2.005004 -0.5448247,2.025688 0,0.04915 -0.1013935,0.07361 2.1841449,-0.526967 z"
     id="path1453" />
  <path
     style="fill:none;fill-opacity:0;stroke-width:0.0350318"
     d="M 4.6767516,21.959811 C 3.9583297,21.922801 3.3853245,21.830001 2.9476492,21.679777 1.5179633,21.189062 0.46240689,19.975899 0.16295795,18.479299 0.02971245,17.813359 0.02411423,17.494498 0.03133698,10.982484 0.03828315,4.719831 0.04757136,4.1830958 0.15968103,3.5658984 0.46150875,1.9042467 1.6990008,0.60418029 3.3638106,0.19975062 4.0353609,0.03661191 4.1084432,0.03503185 10.982484,0.03503185 c 6.702971,0 6.893022,0.0035503 7.549363,0.14102921 1.799523,0.37693248 3.130903,1.83996644 3.362461,3.69495804 0.08307,0.6654436 0.104264,2.1202945 0.104961,7.2037209 L 22,16.404258 l 0.226362,0.01441 c 0.124499,0.0079 0.236544,0.02459 0.248987,0.03704 0.04488,0.04488 -0.08348,1.961197 -0.134586,2.009326 -0.0044,0.0041 -0.114597,-0.0036 -0.24493,-0.01726 l -0.236969,-0.02476 -0.03717,0.141998 c -0.246484,0.94159 -0.589622,1.557298 -1.192884,2.140448 -0.722714,0.698618 -1.458037,1.043692 -2.552375,1.197782 -0.35817,0.05043 -1.112169,0.05732 -6.796178,0.06206 -3.5163219,0.0029 -6.4878983,4.62e-4 -6.6035034,-0.0055 z M 17.726115,20.963863 c 0.92514,-0.08609 1.509124,-0.311226 2.102143,-0.8104 0.631844,-0.531854 1.012559,-1.305799 1.12512,-2.287221 0.07015,-0.611622 0.0712,-13.1074318 0.0012,-13.731081 C 20.82135,2.9493154 20.27969,2.0547261 19.367731,1.514439 18.884987,1.228439 18.408911,1.0972548 17.621019,1.0331273 16.943763,0.9780045 4.2422484,1.0061485 3.9235669,1.0634781 3.1039767,1.2109193 2.5015159,1.5065919 2.0034823,2.0058075 1.4410836,2.569541 1.1518611,3.2235268 1.0452129,4.1726328 0.97637857,4.7852179 0.97660761,17.251759 1.0454651,17.864839 c 0.08309,0.739805 0.2908495,1.295296 0.6752551,1.80544 0.1161906,0.154197 0.2252371,0.280358 0.2423255,0.280358 0.017088,0 0.047131,-0.05912 0.066761,-0.131369 0.01963,-0.07225 0.333651,-1.217907 0.6978241,-2.545896 L 3.3897629,14.858846 3.2184392,14.47913 C 2.8793298,13.72754 2.6293944,12.879381 2.4977433,12.033439 2.4104266,11.472374 2.4107993,10.150606 2.4984349,9.5812102 2.7953598,7.651998 3.6659048,5.9153054 5.0095541,4.5716561 7.967451,1.6137593 12.595043,1.143059 16.08596,3.4450078 c 1.67596,1.1051457 2.932141,2.7567333 3.548043,4.6648557 0.297467,0.9215786 0.415598,1.6883157 0.415598,2.6974615 0,1.007023 -0.111532,1.744287 -0.400712,2.648837 -0.443696,1.38788 -1.125085,2.51533 -2.143313,3.546404 -1.402299,1.419991 -3.149989,2.287324 -5.174366,2.567906 -0.497203,0.06891 -1.813097,0.05943 -2.294586,-0.01654 C 9.1837564,19.419367 8.2959635,19.165714 7.6771256,18.879793 7.5339928,18.813662 7.3993991,18.758804 7.3780282,18.757887 c -0.109479,-0.0047 -5.2051485,1.353223 -5.1950011,1.384392 0.024169,0.07424 0.3675479,0.307594 0.6755903,0.459121 0.3748599,0.184396 0.8741023,0.316075 1.3627202,0.359428 0.5236424,0.04646 13.0079834,0.04927 13.5047774,0.003 z m -12.2139446,-2.728285 1.967129,-0.51691 0.2765526,0.138026 c 0.538127,0.268576 1.25167,0.516985 1.8428741,0.641569 0.7701739,0.162298 1.8645149,0.204648 2.6518679,0.102626 3.577861,-0.463606 6.370354,-3.290252 6.789382,-6.87242 C 19.392484,8.7149763 17.963264,5.7314379 15.407101,4.1447348 14.418773,3.5312438 13.2437,3.1277349 12.051874,2.9925816 11.475085,2.9271737 10.424934,2.9678033 9.843949,3.0780046 8.64853,3.3047518 7.5999165,3.745363 6.6735669,4.4101494 4.0121705,6.3200773 2.8176777,9.6263274 3.6398436,12.807226 c 0.1368228,0.529357 0.2743558,0.896643 0.5498669,1.468436 l 0.2279641,0.473114 -0.5448244,1.988081 c -0.2996536,1.093444 -0.5448247,2.005004 -0.5448247,2.025688 0,0.04915 -0.1013935,0.07361 2.1841449,-0.526967 z"
     id="path1529" />
  <path
     style="fill:none;fill-opacity:0;stroke-width:0.0350318"
     d="M 4.6767516,21.959811 C 3.9583297,21.922801 3.3853245,21.830001 2.9476492,21.679777 1.5179633,21.189062 0.46240689,19.975899 0.16295795,18.479299 0.02971245,17.813359 0.02411423,17.494498 0.03133698,10.982484 0.03828315,4.719831 0.04757136,4.1830958 0.15968103,3.5658984 0.46150875,1.9042467 1.6990008,0.60418029 3.3638106,0.19975062 4.0353609,0.03661191 4.1084432,0.03503185 10.982484,0.03503185 c 6.702971,0 6.893022,0.0035503 7.549363,0.14102921 1.799523,0.37693248 3.130903,1.83996644 3.362461,3.69495804 0.08307,0.6654436 0.104264,2.1202945 0.104961,7.2037209 L 22,16.404258 l 0.226362,0.01441 c 0.124499,0.0079 0.236544,0.02459 0.248987,0.03704 0.04488,0.04488 -0.08348,1.961197 -0.134586,2.009326 -0.0044,0.0041 -0.114597,-0.0036 -0.24493,-0.01726 l -0.236969,-0.02476 -0.03717,0.141998 c -0.246484,0.94159 -0.589622,1.557298 -1.192884,2.140448 -0.722714,0.698618 -1.458037,1.043692 -2.552375,1.197782 -0.35817,0.05043 -1.112169,0.05732 -6.796178,0.06206 -3.5163219,0.0029 -6.4878983,4.62e-4 -6.6035034,-0.0055 z M 17.726115,20.963863 c 0.92514,-0.08609 1.509124,-0.311226 2.102143,-0.8104 0.631844,-0.531854 1.012559,-1.305799 1.12512,-2.287221 0.07015,-0.611622 0.0712,-13.1074318 0.0012,-13.731081 C 20.82135,2.9493154 20.27969,2.0547261 19.367731,1.514439 18.884987,1.228439 18.408911,1.0972548 17.621019,1.0331273 16.943763,0.9780045 4.2422484,1.0061485 3.9235669,1.0634781 3.1039767,1.2109193 2.5015159,1.5065919 2.0034823,2.0058075 1.4410836,2.569541 1.1518611,3.2235268 1.0452129,4.1726328 0.97637857,4.7852179 0.97660761,17.251759 1.0454651,17.864839 c 0.08309,0.739805 0.2908495,1.295296 0.6752551,1.80544 0.1161906,0.154197 0.2252371,0.280358 0.2423255,0.280358 0.017088,0 0.047131,-0.05912 0.066761,-0.131369 0.01963,-0.07225 0.333651,-1.217907 0.6978241,-2.545896 L 3.3897629,14.858846 3.2184392,14.47913 C 2.8793298,13.72754 2.6293944,12.879381 2.4977433,12.033439 2.4104266,11.472374 2.4107993,10.150606 2.4984349,9.5812102 2.7953598,7.651998 3.6659048,5.9153054 5.0095541,4.5716561 7.967451,1.6137593 12.595043,1.143059 16.08596,3.4450078 c 1.67596,1.1051457 2.932141,2.7567333 3.548043,4.6648557 0.297467,0.9215786 0.415598,1.6883157 0.415598,2.6974615 0,1.007023 -0.111532,1.744287 -0.400712,2.648837 -0.443696,1.38788 -1.125085,2.51533 -2.143313,3.546404 -1.402299,1.419991 -3.149989,2.287324 -5.174366,2.567906 -0.497203,0.06891 -1.813097,0.05943 -2.294586,-0.01654 C 9.1837564,19.419367 8.2959635,19.165714 7.6771256,18.879793 7.5339928,18.813662 7.3993991,18.758804 7.3780282,18.757887 c -0.109479,-0.0047 -5.2051485,1.353223 -5.1950011,1.384392 0.024169,0.07424 0.3675479,0.307594 0.6755903,0.459121 0.3748599,0.184396 0.8741023,0.316075 1.3627202,0.359428 0.5236424,0.04646 13.0079834,0.04927 13.5047774,0.003 z m -12.2139446,-2.728285 1.967129,-0.51691 0.2765526,0.138026 c 0.538127,0.268576 1.25167,0.516985 1.8428741,0.641569 0.7701739,0.162298 1.8645149,0.204648 2.6518679,0.102626 3.577861,-0.463606 6.370354,-3.290252 6.789382,-6.87242 C 19.392484,8.7149763 17.963264,5.7314379 15.407101,4.1447348 14.418773,3.5312438 13.2437,3.1277349 12.051874,2.9925816 11.475085,2.9271737 10.424934,2.9678033 9.843949,3.0780046 8.64853,3.3047518 7.5999165,3.745363 6.6735669,4.4101494 4.0121705,6.3200773 2.8176777,9.6263274 3.6398436,12.807226 c 0.1368228,0.529357 0.2743558,0.896643 0.5498669,1.468436 l 0.2279641,0.473114 -0.5448244,1.988081 c -0.2996536,1.093444 -0.5448247,2.005004 -0.5448247,2.025688 0,0.04915 -0.1013935,0.07361 2.1841449,-0.526967 z"
     id="path1568" />
  <path
     style="fill:none;fill-opacity:0;stroke-width:0.0350318"
     d="M 4.6767516,21.959811 C 3.9583297,21.922801 3.3853245,21.830001 2.9476492,21.679777 1.5179633,21.189062 0.46240689,19.975899 0.16295795,18.479299 0.02971245,17.813359 0.02411423,17.494498 0.03133698,10.982484 0.03828315,4.719831 0.04757136,4.1830958 0.15968103,3.5658984 0.46150875,1.9042467 1.6990008,0.60418029 3.3638106,0.19975062 4.0353609,0.03661191 4.1084432,0.03503185 10.982484,0.03503185 c 6.702971,0 6.893022,0.0035503 7.549363,0.14102921 1.799523,0.37693248 3.130903,1.83996644 3.362461,3.69495804 0.08307,0.6654436 0.104264,2.1202945 0.104961,7.2037209 L 22,16.404258 l 0.226362,0.01441 c 0.124499,0.0079 0.236544,0.02459 0.248987,0.03704 0.04488,0.04488 -0.08348,1.961197 -0.134586,2.009326 -0.0044,0.0041 -0.114597,-0.0036 -0.24493,-0.01726 l -0.236969,-0.02476 -0.03717,0.141998 c -0.246484,0.94159 -0.589622,1.557298 -1.192884,2.140448 -0.722714,0.698618 -1.458037,1.043692 -2.552375,1.197782 -0.35817,0.05043 -1.112169,0.05732 -6.796178,0.06206 -3.5163219,0.0029 -6.4878983,4.62e-4 -6.6035034,-0.0055 z M 17.726115,20.963863 c 0.92514,-0.08609 1.509124,-0.311226 2.102143,-0.8104 0.631844,-0.531854 1.012559,-1.305799 1.12512,-2.287221 0.07015,-0.611622 0.0712,-13.1074318 0.0012,-13.731081 C 20.82135,2.9493154 20.27969,2.0547261 19.367731,1.514439 18.884987,1.228439 18.408911,1.0972548 17.621019,1.0331273 16.943763,0.9780045 4.2422484,1.0061485 3.9235669,1.0634781 3.1039767,1.2109193 2.5015159,1.5065919 2.0034823,2.0058075 1.4410836,2.569541 1.1518611,3.2235268 1.0452129,4.1726328 0.97637857,4.7852179 0.97660761,17.251759 1.0454651,17.864839 c 0.08309,0.739805 0.2908495,1.295296 0.6752551,1.80544 0.1161906,0.154197 0.2252371,0.280358 0.2423255,0.280358 0.017088,0 0.047131,-0.05912 0.066761,-0.131369 0.01963,-0.07225 0.333651,-1.217907 0.6978241,-2.545896 L 3.3897629,14.858846 3.2184392,14.47913 C 2.8793298,13.72754 2.6293944,12.879381 2.4977433,12.033439 2.4104266,11.472374 2.4107993,10.150606 2.4984349,9.5812102 2.7953598,7.651998 3.6659048,5.9153054 5.0095541,4.5716561 7.967451,1.6137593 12.595043,1.143059 16.08596,3.4450078 c 1.67596,1.1051457 2.932141,2.7567333 3.548043,4.6648557 0.297467,0.9215786 0.415598,1.6883157 0.415598,2.6974615 0,1.007023 -0.111532,1.744287 -0.400712,2.648837 -0.443696,1.38788 -1.125085,2.51533 -2.143313,3.546404 -1.402299,1.419991 -3.149989,2.287324 -5.174366,2.567906 -0.497203,0.06891 -1.813097,0.05943 -2.294586,-0.01654 C 9.1837564,19.419367 8.2959635,19.165714 7.6771256,18.879793 7.5339928,18.813662 7.3993991,18.758804 7.3780282,18.757887 c -0.109479,-0.0047 -5.2051485,1.353223 -5.1950011,1.384392 0.024169,0.07424 0.3675479,0.307594 0.6755903,0.459121 0.3748599,0.184396 0.8741023,0.316075 1.3627202,0.359428 0.5236424,0.04646 13.0079834,0.04927 13.5047774,0.003 z m -12.2139446,-2.728285 1.967129,-0.51691 0.2765526,0.138026 c 0.538127,0.268576 1.25167,0.516985 1.8428741,0.641569 0.7701739,0.162298 1.8645149,0.204648 2.6518679,0.102626 3.577861,-0.463606 6.370354,-3.290252 6.789382,-6.87242 C 19.392484,8.7149763 17.963264,5.7314379 15.407101,4.1447348 14.418773,3.5312438 13.2437,3.1277349 12.051874,2.9925816 11.475085,2.9271737 10.424934,2.9678033 9.843949,3.0780046 8.64853,3.3047518 7.5999165,3.745363 6.6735669,4.4101494 4.0121705,6.3200773 2.8176777,9.6263274 3.6398436,12.807226 c 0.1368228,0.529357 0.2743558,0.896643 0.5498669,1.468436 l 0.2279641,0.473114 -0.5448244,1.988081 c -0.2996536,1.093444 -0.5448247,2.005004 -0.5448247,2.025688 0,0.04915 -0.1013935,0.07361 2.1841449,-0.526967 z"
     id="path1607" />
  <path
     style="fill:#ffffff;fill-opacity:0;stroke-width:0.0350318"
     d="M 4.6767516,21.959811 C 3.9583297,21.922801 3.3853245,21.830001 2.9476492,21.679777 1.5179633,21.189062 0.46240689,19.975899 0.16295795,18.479299 0.02971245,17.813359 0.02411423,17.494498 0.03133698,10.982484 0.03828315,4.719831 0.04757136,4.1830958 0.15968103,3.5658984 0.46150875,1.9042467 1.6990008,0.60418029 3.3638106,0.19975062 4.0353609,0.03661191 4.1084432,0.03503185 10.982484,0.03503185 c 6.702971,0 6.893022,0.0035503 7.549363,0.14102921 1.799523,0.37693248 3.130903,1.83996644 3.362461,3.69495804 0.08307,0.6654436 0.104264,2.1202945 0.104961,7.2037209 L 22,16.404258 l 0.226362,0.01441 c 0.124499,0.0079 0.236544,0.02459 0.248987,0.03704 0.04488,0.04488 -0.08348,1.961197 -0.134586,2.009326 -0.0044,0.0041 -0.114597,-0.0036 -0.24493,-0.01726 l -0.236969,-0.02476 -0.03717,0.141998 c -0.246484,0.94159 -0.589622,1.557298 -1.192884,2.140448 -0.722714,0.698618 -1.458037,1.043692 -2.552375,1.197782 -0.35817,0.05043 -1.112169,0.05732 -6.796178,0.06206 -3.5163219,0.0029 -6.4878983,4.62e-4 -6.6035034,-0.0055 z M 17.726115,20.963863 c 0.92514,-0.08609 1.509124,-0.311226 2.102143,-0.8104 0.631844,-0.531854 1.012559,-1.305799 1.12512,-2.287221 0.07015,-0.611622 0.0712,-13.1074318 0.0012,-13.731081 C 20.82135,2.9493154 20.27969,2.0547261 19.367731,1.514439 18.884987,1.228439 18.408911,1.0972548 17.621019,1.0331273 16.943763,0.9780045 4.2422484,1.0061485 3.9235669,1.0634781 3.1039767,1.2109193 2.5015159,1.5065919 2.0034823,2.0058075 1.4410836,2.569541 1.1518611,3.2235268 1.0452129,4.1726328 0.97637857,4.7852179 0.97660761,17.251759 1.0454651,17.864839 c 0.08309,0.739805 0.2908495,1.295296 0.6752551,1.80544 0.1161906,0.154197 0.2252371,0.280358 0.2423255,0.280358 0.017088,0 0.047131,-0.05912 0.066761,-0.131369 0.01963,-0.07225 0.333651,-1.217907 0.6978241,-2.545896 L 3.3897629,14.858846 3.2184392,14.47913 C 2.8793298,13.72754 2.6293944,12.879381 2.4977433,12.033439 2.4104266,11.472374 2.4107993,10.150606 2.4984349,9.5812102 2.7953598,7.651998 3.6659048,5.9153054 5.0095541,4.5716561 7.967451,1.6137593 12.595043,1.143059 16.08596,3.4450078 c 1.67596,1.1051457 2.932141,2.7567333 3.548043,4.6648557 0.297467,0.9215786 0.415598,1.6883157 0.415598,2.6974615 0,1.007023 -0.111532,1.744287 -0.400712,2.648837 -0.443696,1.38788 -1.125085,2.51533 -2.143313,3.546404 -1.402299,1.419991 -3.149989,2.287324 -5.174366,2.567906 -0.497203,0.06891 -1.813097,0.05943 -2.294586,-0.01654 C 9.1837564,19.419367 8.2959635,19.165714 7.6771256,18.879793 7.5339928,18.813662 7.3993991,18.758804 7.3780282,18.757887 c -0.109479,-0.0047 -5.2051485,1.353223 -5.1950011,1.384392 0.024169,0.07424 0.3675479,0.307594 0.6755903,0.459121 0.3748599,0.184396 0.8741023,0.316075 1.3627202,0.359428 0.5236424,0.04646 13.0079834,0.04927 13.5047774,0.003 z m -12.2139446,-2.728285 1.967129,-0.51691 0.2765526,0.138026 c 0.538127,0.268576 1.25167,0.516985 1.8428741,0.641569 0.7701739,0.162298 1.8645149,0.204648 2.6518679,0.102626 3.577861,-0.463606 6.370354,-3.290252 6.789382,-6.87242 C 19.392484,8.7149763 17.963264,5.7314379 15.407101,4.1447348 14.418773,3.5312438 13.2437,3.1277349 12.051874,2.9925816 11.475085,2.9271737 10.424934,2.9678033 9.843949,3.0780046 8.64853,3.3047518 7.5999165,3.745363 6.6735669,4.4101494 4.0121705,6.3200773 2.8176777,9.6263274 3.6398436,12.807226 c 0.1368228,0.529357 0.2743558,0.896643 0.5498669,1.468436 l 0.2279641,0.473114 -0.5448244,1.988081 c -0.2996536,1.093444 -0.5448247,2.005004 -0.5448247,2.025688 0,0.04915 -0.1013935,0.07361 2.1841449,-0.526967 z"
     id="path1646" />
  <path
     style="fill:#ffffff;fill-opacity:0;stroke-width:0.0350318"
     d="M 4.6767516,21.959811 C 3.9583297,21.922801 3.3853245,21.830001 2.9476492,21.679777 1.5179633,21.189062 0.46240689,19.975899 0.16295795,18.479299 0.02971245,17.813359 0.02411423,17.494498 0.03133698,10.982484 0.03828315,4.719831 0.04757136,4.1830958 0.15968103,3.5658984 0.46150875,1.9042467 1.6990008,0.60418029 3.3638106,0.19975062 4.0353609,0.03661191 4.1084432,0.03503185 10.982484,0.03503185 c 6.702971,0 6.893022,0.0035503 7.549363,0.14102921 1.799523,0.37693248 3.130903,1.83996644 3.362461,3.69495804 0.08307,0.6654436 0.104264,2.1202945 0.104961,7.2037209 L 22,16.404258 l 0.226362,0.01441 c 0.124499,0.0079 0.236544,0.02459 0.248987,0.03704 0.04488,0.04488 -0.08348,1.961197 -0.134586,2.009326 -0.0044,0.0041 -0.114597,-0.0036 -0.24493,-0.01726 l -0.236969,-0.02476 -0.03717,0.141998 c -0.246484,0.94159 -0.589622,1.557298 -1.192884,2.140448 -0.722714,0.698618 -1.458037,1.043692 -2.552375,1.197782 -0.35817,0.05043 -1.112169,0.05732 -6.796178,0.06206 -3.5163219,0.0029 -6.4878983,4.62e-4 -6.6035034,-0.0055 z M 17.726115,20.963863 c 0.92514,-0.08609 1.509124,-0.311226 2.102143,-0.8104 0.631844,-0.531854 1.012559,-1.305799 1.12512,-2.287221 0.07015,-0.611622 0.0712,-13.1074318 0.0012,-13.731081 C 20.82135,2.9493154 20.27969,2.0547261 19.367731,1.514439 18.884987,1.228439 18.408911,1.0972548 17.621019,1.0331273 16.943763,0.9780045 4.2422484,1.0061485 3.9235669,1.0634781 3.1039767,1.2109193 2.5015159,1.5065919 2.0034823,2.0058075 1.4410836,2.569541 1.1518611,3.2235268 1.0452129,4.1726328 0.97637857,4.7852179 0.97660761,17.251759 1.0454651,17.864839 c 0.08309,0.739805 0.2908495,1.295296 0.6752551,1.80544 0.1161906,0.154197 0.2252371,0.280358 0.2423255,0.280358 0.017088,0 0.047131,-0.05912 0.066761,-0.131369 0.01963,-0.07225 0.333651,-1.217907 0.6978241,-2.545896 L 3.3897629,14.858846 3.2184392,14.47913 C 2.8793298,13.72754 2.6293944,12.879381 2.4977433,12.033439 2.4104266,11.472374 2.4107993,10.150606 2.4984349,9.5812102 2.7953598,7.651998 3.6659048,5.9153054 5.0095541,4.5716561 7.967451,1.6137593 12.595043,1.143059 16.08596,3.4450078 c 1.67596,1.1051457 2.932141,2.7567333 3.548043,4.6648557 0.297467,0.9215786 0.415598,1.6883157 0.415598,2.6974615 0,1.007023 -0.111532,1.744287 -0.400712,2.648837 -0.443696,1.38788 -1.125085,2.51533 -2.143313,3.546404 -1.402299,1.419991 -3.149989,2.287324 -5.174366,2.567906 -0.497203,0.06891 -1.813097,0.05943 -2.294586,-0.01654 C 9.1837564,19.419367 8.2959635,19.165714 7.6771256,18.879793 7.5339928,18.813662 7.3993991,18.758804 7.3780282,18.757887 c -0.109479,-0.0047 -5.2051485,1.353223 -5.1950011,1.384392 0.024169,0.07424 0.3675479,0.307594 0.6755903,0.459121 0.3748599,0.184396 0.8741023,0.316075 1.3627202,0.359428 0.5236424,0.04646 13.0079834,0.04927 13.5047774,0.003 z m -12.2139446,-2.728285 1.967129,-0.51691 0.2765526,0.138026 c 0.538127,0.268576 1.25167,0.516985 1.8428741,0.641569 0.7701739,0.162298 1.8645149,0.204648 2.6518679,0.102626 3.577861,-0.463606 6.370354,-3.290252 6.789382,-6.87242 C 19.392484,8.7149763 17.963264,5.7314379 15.407101,4.1447348 14.418773,3.5312438 13.2437,3.1277349 12.051874,2.9925816 11.475085,2.9271737 10.424934,2.9678033 9.843949,3.0780046 8.64853,3.3047518 7.5999165,3.745363 6.6735669,4.4101494 4.0121705,6.3200773 2.8176777,9.6263274 3.6398436,12.807226 c 0.1368228,0.529357 0.2743558,0.896643 0.5498669,1.468436 l 0.2279641,0.473114 -0.5448244,1.988081 c -0.2996536,1.093444 -0.5448247,2.005004 -0.5448247,2.025688 0,0.04915 -0.1013935,0.07361 2.1841449,-0.526967 z"
     id="path1722" />
  <path
     style="fill:#ffffff;fill-opacity:0;stroke-width:0.0350318"
     d="M 4.6767516,21.959811 C 3.9583297,21.922801 3.3853245,21.830001 2.9476492,21.679777 1.5179633,21.189062 0.46240689,19.975899 0.16295795,18.479299 0.02971245,17.813359 0.02411423,17.494498 0.03133698,10.982484 0.03828315,4.719831 0.04757136,4.1830958 0.15968103,3.5658984 0.46150875,1.9042467 1.6990008,0.60418029 3.3638106,0.19975062 4.0353609,0.03661191 4.1084432,0.03503185 10.982484,0.03503185 c 6.702971,0 6.893022,0.0035503 7.549363,0.14102921 1.799523,0.37693248 3.130903,1.83996644 3.362461,3.69495804 0.08307,0.6654436 0.104264,2.1202945 0.104961,7.2037209 L 22,16.404258 l 0.226362,0.01441 c 0.124499,0.0079 0.236544,0.02459 0.248987,0.03704 0.04488,0.04488 -0.08348,1.961197 -0.134586,2.009326 -0.0044,0.0041 -0.114597,-0.0036 -0.24493,-0.01726 l -0.236969,-0.02476 -0.03717,0.141998 c -0.246484,0.94159 -0.589622,1.557298 -1.192884,2.140448 -0.722714,0.698618 -1.458037,1.043692 -2.552375,1.197782 -0.35817,0.05043 -1.112169,0.05732 -6.796178,0.06206 -3.5163219,0.0029 -6.4878983,4.62e-4 -6.6035034,-0.0055 z M 17.726115,20.963863 c 0.92514,-0.08609 1.509124,-0.311226 2.102143,-0.8104 0.631844,-0.531854 1.012559,-1.305799 1.12512,-2.287221 0.07015,-0.611622 0.0712,-13.1074318 0.0012,-13.731081 C 20.82135,2.9493154 20.27969,2.0547261 19.367731,1.514439 18.884987,1.228439 18.408911,1.0972548 17.621019,1.0331273 16.943763,0.9780045 4.2422484,1.0061485 3.9235669,1.0634781 3.1039767,1.2109193 2.5015159,1.5065919 2.0034823,2.0058075 1.4410836,2.569541 1.1518611,3.2235268 1.0452129,4.1726328 0.97637857,4.7852179 0.97660761,17.251759 1.0454651,17.864839 c 0.08309,0.739805 0.2908495,1.295296 0.6752551,1.80544 0.1161906,0.154197 0.2252371,0.280358 0.2423255,0.280358 0.017088,0 0.047131,-0.05912 0.066761,-0.131369 0.01963,-0.07225 0.333651,-1.217907 0.6978241,-2.545896 L 3.3897629,14.858846 3.2184392,14.47913 C 2.8793298,13.72754 2.6293944,12.879381 2.4977433,12.033439 2.4104266,11.472374 2.4107993,10.150606 2.4984349,9.5812102 2.7953598,7.651998 3.6659048,5.9153054 5.0095541,4.5716561 7.967451,1.6137593 12.595043,1.143059 16.08596,3.4450078 c 1.67596,1.1051457 2.932141,2.7567333 3.548043,4.6648557 0.297467,0.9215786 0.415598,1.6883157 0.415598,2.6974615 0,1.007023 -0.111532,1.744287 -0.400712,2.648837 -0.443696,1.38788 -1.125085,2.51533 -2.143313,3.546404 -1.402299,1.419991 -3.149989,2.287324 -5.174366,2.567906 -0.497203,0.06891 -1.813097,0.05943 -2.294586,-0.01654 C 9.1837564,19.419367 8.2959635,19.165714 7.6771256,18.879793 7.5339928,18.813662 7.3993991,18.758804 7.3780282,18.757887 c -0.109479,-0.0047 -5.2051485,1.353223 -5.1950011,1.384392 0.024169,0.07424 0.3675479,0.307594 0.6755903,0.459121 0.3748599,0.184396 0.8741023,0.316075 1.3627202,0.359428 0.5236424,0.04646 13.0079834,0.04927 13.5047774,0.003 z m -12.2139446,-2.728285 1.967129,-0.51691 0.2765526,0.138026 c 0.538127,0.268576 1.25167,0.516985 1.8428741,0.641569 0.7701739,0.162298 1.8645149,0.204648 2.6518679,0.102626 3.577861,-0.463606 6.370354,-3.290252 6.789382,-6.87242 C 19.392484,8.7149763 17.963264,5.7314379 15.407101,4.1447348 14.418773,3.5312438 13.2437,3.1277349 12.051874,2.9925816 11.475085,2.9271737 10.424934,2.9678033 9.843949,3.0780046 8.64853,3.3047518 7.5999165,3.745363 6.6735669,4.4101494 4.0121705,6.3200773 2.8176777,9.6263274 3.6398436,12.807226 c 0.1368228,0.529357 0.2743558,0.896643 0.5498669,1.468436 l 0.2279641,0.473114 -0.5448244,1.988081 c -0.2996536,1.093444 -0.5448247,2.005004 -0.5448247,2.025688 0,0.04915 -0.1013935,0.07361 2.1841449,-0.526967 z"
     id="path1761" />
  <path
     style="fill:#ffffff;fill-opacity:0;stroke-width:0.0350318"
     d="M 4.6767516,21.959811 C 3.9583297,21.922801 3.3853245,21.830001 2.9476492,21.679777 1.5179633,21.189062 0.46240689,19.975899 0.16295795,18.479299 0.02971245,17.813359 0.02411423,17.494498 0.03133698,10.982484 0.03828315,4.719831 0.04757136,4.1830958 0.15968103,3.5658984 0.46150875,1.9042467 1.6990008,0.60418029 3.3638106,0.19975062 4.0353609,0.03661191 4.1084432,0.03503185 10.982484,0.03503185 c 6.702971,0 6.893022,0.0035503 7.549363,0.14102921 1.799523,0.37693248 3.130903,1.83996644 3.362461,3.69495804 0.08307,0.6654436 0.104264,2.1202945 0.104961,7.2037209 L 22,16.404258 l 0.226362,0.01441 c 0.124499,0.0079 0.236544,0.02459 0.248987,0.03704 0.04488,0.04488 -0.08348,1.961197 -0.134586,2.009326 -0.0044,0.0041 -0.114597,-0.0036 -0.24493,-0.01726 l -0.236969,-0.02476 -0.03717,0.141998 c -0.246484,0.94159 -0.589622,1.557298 -1.192884,2.140448 -0.722714,0.698618 -1.458037,1.043692 -2.552375,1.197782 -0.35817,0.05043 -1.112169,0.05732 -6.796178,0.06206 -3.5163219,0.0029 -6.4878983,4.62e-4 -6.6035034,-0.0055 z M 17.726115,20.963863 c 0.92514,-0.08609 1.509124,-0.311226 2.102143,-0.8104 0.631844,-0.531854 1.012559,-1.305799 1.12512,-2.287221 0.07015,-0.611622 0.0712,-13.1074318 0.0012,-13.731081 C 20.82135,2.9493154 20.27969,2.0547261 19.367731,1.514439 18.884987,1.228439 18.408911,1.0972548 17.621019,1.0331273 16.943763,0.9780045 4.2422484,1.0061485 3.9235669,1.0634781 3.1039767,1.2109193 2.5015159,1.5065919 2.0034823,2.0058075 1.4410836,2.569541 1.1518611,3.2235268 1.0452129,4.1726328 0.97637857,4.7852179 0.97660761,17.251759 1.0454651,17.864839 c 0.08309,0.739805 0.2908495,1.295296 0.6752551,1.80544 0.1161906,0.154197 0.2252371,0.280358 0.2423255,0.280358 0.017088,0 0.047131,-0.05912 0.066761,-0.131369 0.01963,-0.07225 0.333651,-1.217907 0.6978241,-2.545896 L 3.3897629,14.858846 3.2184392,14.47913 C 2.8793298,13.72754 2.6293944,12.879381 2.4977433,12.033439 2.4104266,11.472374 2.4107993,10.150606 2.4984349,9.5812102 2.7953598,7.651998 3.6659048,5.9153054 5.0095541,4.5716561 7.967451,1.6137593 12.595043,1.143059 16.08596,3.4450078 c 1.67596,1.1051457 2.932141,2.7567333 3.548043,4.6648557 0.297467,0.9215786 0.415598,1.6883157 0.415598,2.6974615 0,1.007023 -0.111532,1.744287 -0.400712,2.648837 -0.443696,1.38788 -1.125085,2.51533 -2.143313,3.546404 -1.402299,1.419991 -3.149989,2.287324 -5.174366,2.567906 -0.497203,0.06891 -1.813097,0.05943 -2.294586,-0.01654 C 9.1837564,19.419367 8.2959635,19.165714 7.6771256,18.879793 7.5339928,18.813662 7.3993991,18.758804 7.3780282,18.757887 c -0.109479,-0.0047 -5.2051485,1.353223 -5.1950011,1.384392 0.024169,0.07424 0.3675479,0.307594 0.6755903,0.459121 0.3748599,0.184396 0.8741023,0.316075 1.3627202,0.359428 0.5236424,0.04646 13.0079834,0.04927 13.5047774,0.003 z m -12.2139446,-2.728285 1.967129,-0.51691 0.2765526,0.138026 c 0.538127,0.268576 1.25167,0.516985 1.8428741,0.641569 0.7701739,0.162298 1.8645149,0.204648 2.6518679,0.102626 3.577861,-0.463606 6.370354,-3.290252 6.789382,-6.87242 C 19.392484,8.7149763 17.963264,5.7314379 15.407101,4.1447348 14.418773,3.5312438 13.2437,3.1277349 12.051874,2.9925816 11.475085,2.9271737 10.424934,2.9678033 9.843949,3.0780046 8.64853,3.3047518 7.5999165,3.745363 6.6735669,4.4101494 4.0121705,6.3200773 2.8176777,9.6263274 3.6398436,12.807226 c 0.1368228,0.529357 0.2743558,0.896643 0.5498669,1.468436 l 0.2279641,0.473114 -0.5448244,1.988081 c -0.2996536,1.093444 -0.5448247,2.005004 -0.5448247,2.025688 0,0.04915 -0.1013935,0.07361 2.1841449,-0.526967 z"
     id="path1800" />
  <path
     style="fill:#ffffff;fill-opacity:0;stroke-width:0.0350318"
     d="M 4.6767516,21.959811 C 3.9583297,21.922801 3.3853245,21.830001 2.9476492,21.679777 1.5179633,21.189062 0.46240689,19.975899 0.16295795,18.479299 0.02971245,17.813359 0.02411423,17.494498 0.03133698,10.982484 0.03828315,4.719831 0.04757136,4.1830958 0.15968103,3.5658984 0.46150875,1.9042467 1.6990008,0.60418029 3.3638106,0.19975062 4.0353609,0.03661191 4.1084432,0.03503185 10.982484,0.03503185 c 6.702971,0 6.893022,0.0035503 7.549363,0.14102921 1.799523,0.37693248 3.130903,1.83996644 3.362461,3.69495804 0.08307,0.6654436 0.104264,2.1202945 0.104961,7.2037209 L 22,16.404258 l 0.226362,0.01441 c 0.124499,0.0079 0.236544,0.02459 0.248987,0.03704 0.04488,0.04488 -0.08348,1.961197 -0.134586,2.009326 -0.0044,0.0041 -0.114597,-0.0036 -0.24493,-0.01726 l -0.236969,-0.02476 -0.03717,0.141998 c -0.246484,0.94159 -0.589622,1.557298 -1.192884,2.140448 -0.722714,0.698618 -1.458037,1.043692 -2.552375,1.197782 -0.35817,0.05043 -1.112169,0.05732 -6.796178,0.06206 -3.5163219,0.0029 -6.4878983,4.62e-4 -6.6035034,-0.0055 z M 17.726115,20.963863 c 0.92514,-0.08609 1.509124,-0.311226 2.102143,-0.8104 0.631844,-0.531854 1.012559,-1.305799 1.12512,-2.287221 0.07015,-0.611622 0.0712,-13.1074318 0.0012,-13.731081 C 20.82135,2.9493154 20.27969,2.0547261 19.367731,1.514439 18.884987,1.228439 18.408911,1.0972548 17.621019,1.0331273 16.943763,0.9780045 4.2422484,1.0061485 3.9235669,1.0634781 3.1039767,1.2109193 2.5015159,1.5065919 2.0034823,2.0058075 1.4410836,2.569541 1.1518611,3.2235268 1.0452129,4.1726328 0.97637857,4.7852179 0.97660761,17.251759 1.0454651,17.864839 c 0.08309,0.739805 0.2908495,1.295296 0.6752551,1.80544 0.1161906,0.154197 0.2252371,0.280358 0.2423255,0.280358 0.017088,0 0.047131,-0.05912 0.066761,-0.131369 0.01963,-0.07225 0.333651,-1.217907 0.6978241,-2.545896 L 3.3897629,14.858846 3.2184392,14.47913 C 2.8793298,13.72754 2.6293944,12.879381 2.4977433,12.033439 2.4104266,11.472374 2.4107993,10.150606 2.4984349,9.5812102 2.7953598,7.651998 3.6659048,5.9153054 5.0095541,4.5716561 7.967451,1.6137593 12.595043,1.143059 16.08596,3.4450078 c 1.67596,1.1051457 2.932141,2.7567333 3.548043,4.6648557 0.297467,0.9215786 0.415598,1.6883157 0.415598,2.6974615 0,1.007023 -0.111532,1.744287 -0.400712,2.648837 -0.443696,1.38788 -1.125085,2.51533 -2.143313,3.546404 -1.402299,1.419991 -3.149989,2.287324 -5.174366,2.567906 -0.497203,0.06891 -1.813097,0.05943 -2.294586,-0.01654 C 9.1837564,19.419367 8.2959635,19.165714 7.6771256,18.879793 7.5339928,18.813662 7.3993991,18.758804 7.3780282,18.757887 c -0.109479,-0.0047 -5.2051485,1.353223 -5.1950011,1.384392 0.024169,0.07424 0.3675479,0.307594 0.6755903,0.459121 0.3748599,0.184396 0.8741023,0.316075 1.3627202,0.359428 0.5236424,0.04646 13.0079834,0.04927 13.5047774,0.003 z m -12.2139446,-2.728285 1.967129,-0.51691 0.2765526,0.138026 c 0.538127,0.268576 1.25167,0.516985 1.8428741,0.641569 0.7701739,0.162298 1.8645149,0.204648 2.6518679,0.102626 3.577861,-0.463606 6.370354,-3.290252 6.789382,-6.87242 C 19.392484,8.7149763 17.963264,5.7314379 15.407101,4.1447348 14.418773,3.5312438 13.2437,3.1277349 12.051874,2.9925816 11.475085,2.9271737 10.424934,2.9678033 9.843949,3.0780046 8.64853,3.3047518 7.5999165,3.745363 6.6735669,4.4101494 4.0121705,6.3200773 2.8176777,9.6263274 3.6398436,12.807226 c 0.1368228,0.529357 0.2743558,0.896643 0.5498669,1.468436 l 0.2279641,0.473114 -0.5448244,1.988081 c -0.2996536,1.093444 -0.5448247,2.005004 -0.5448247,2.025688 0,0.04915 -0.1013935,0.07361 2.1841449,-0.526967 z"
     id="path1839" />
</svg>
