<svg width="22" height="22" viewBox="0 0 22 22" fill="none" xmlns="http://www.w3.org/2000/svg">
<path d="M15.3218 6H6.96799C5.32895 6 4 7.31466 4 8.93512V13.0649C4 14.6868 5.32895 16 6.96799 16H15.3218C16.9608 16 18.2898 14.6853 18.2898 13.0649V8.93512C18.2898 7.31323 16.9608 6 15.3218 6ZM13.3155 11.2015L9.40726 13.0449C9.38335 13.0562 9.35698 13.0613 9.33058 13.0597C9.30419 13.0581 9.27862 13.0498 9.25625 13.0357C9.23389 13.0216 9.21544 13.0021 9.20262 12.979C9.1898 12.9558 9.18302 12.9298 9.18291 12.9034V9.10231C9.18315 9.07553 9.19023 9.04925 9.20347 9.02597C9.21672 9.00269 9.2357 8.98318 9.2586 8.9693C9.28151 8.95541 9.30758 8.94761 9.33435 8.94663C9.36111 8.94565 9.38769 8.95153 9.41155 8.9637L13.3184 10.9214C13.3441 10.9348 13.3655 10.9551 13.3804 10.98C13.3953 11.0048 13.403 11.0333 13.4028 11.0623C13.4025 11.0913 13.3942 11.1196 13.3788 11.1442C13.3634 11.1688 13.3415 11.1886 13.3155 11.2015Z" fill="#830009"/>
<rect x="0.65" y="0.65" width="20.7" height="20.7" rx="2.35" stroke="#830009" stroke-width="1.3"/>
</svg>
