<?xml version="1.0" encoding="utf-8"?>
<svg viewBox="0 0 500 500" xmlns="http://www.w3.org/2000/svg">
  <g transform="matrix(0.913907, 0, 0, 0.921623, 33.979992, 32.317417)" style="">
    <path class="st0" d="M8.36,8.2C169.6,8.25,330.84,8.31,492.08,8.36c-0.06,161.24-0.11,322.48-0.17,483.72 c-161.24-0.06-322.48-0.11-483.72-0.17C8.25,330.68,8.31,169.44,8.36,8.2z M222.38,290.08c6.84,2.41,13.69,4.83,20.53,7.24 c2.51-7.45,5.01-14.91,7.84-23.31c11.11,4.84,20.72,9.57,30.75,13.12c4.24,1.5,9.37,0.49,14.1,0.61c-0.9-4.56-0.68-9.79-2.92-13.56 c-5.27-8.87-11.72-17.05-16.13-23.3c12.31-9.71,23.08-18.21,33.84-26.7c-0.76-1.29-1.51-2.59-2.27-3.88 c-4.15,0.44-8.3,0.89-15.71,1.68c3.49-11.22,3.79-22.96,9.82-29.11c9.63-9.82,23.05-15.93,35.61-24.08 c2.65,13.41,6.23,27.8,23.04,29.04c13.02,0.96,26.4-0.34,39.37-2.29c6.92-1.04,13.31-5.58,22.52-9.69 c-9.49-5.01-15.62-8.24-21.39-11.28c0.98-6.03,1.76-10.83,2.1-12.96c-18.12-13.89-34.47-26.43-50.83-38.97 c1.03-1.29,2.06-2.58,3.1-3.87c7.01,5.76,13.52,12.34,21.18,17.06c7.6,4.69,16.34,10.61,24.59,10.62 c29.38,0.02,55.13-10.85,73.51-34.38c13.63-17.45,8.99-49.84-8.59-60.48c-11.53-6.98-20.93-13.39-19.12-28.61 c-1.56,5.62-3.13,11.24-4.6,16.52c-31.02,0.4-53.34,10.71-61.83,42.43c-3.99,14.9-14.3,7.53-20.08,5.76 c5.04-13.88,10.14-26.56,13.99-39.61c0.75-2.56-3.06-6.75-5.42-9.66c-0.41-0.51-5.47,1.09-5.98,2.55 c-6.7,19.33-22.98,16.96-37.16,14.94c-25.35-3.61-50.36-8.21-72.8,2.75c-9.08-8.85-16.56-16.13-24.03-23.41 c-0.78,0.81-1.55,1.62-2.33,2.44c1.22,7.12,2.44,14.23,3.2,18.62c-19.47-3.62-37.84-9.59-56.28-9.81 c-22.75-0.27-32.83,18.74-42.04,38.16c-7.7-12.92-11.1-28.88-30.03-27.79c-1.75,4.92-3.33,9.37-4,11.26 c-13.07-5.01-24.9-10.57-37.32-13.94c-8.48-2.3-14.31,2.6-11.82,12.09c3.28,12.49,7.67,24.7,11.92,38.11 c-4.12,1.01-9.69,2.37-15.26,3.73c-1.13,1.6-2.27,3.2-3.4,4.8c8.76,7.65,17.51,15.29,25.83,22.56 c-44.51,23.91-22.53,58.35-11.45,91.79c-4.12-1.02-6.08-1.99-7.97-1.88c-4.21,0.24-8.39,1.02-12.58,1.58 c1.2,4.51,1.16,10.08,3.89,13.3c4.4,5.18,10.63,8.81,16.09,13.09c-1.24,0.08-2.47,0.16-3.71,0.24 c-0.01,21.06-0.17,42.11,0.05,63.17c0.09,9.13,2.43,18.5,0.95,27.29c-1.02,6.04-6.72,11.36-10.58,16.82 c-2.01,2.83-4.58,5.26-6.9,7.87c3.72,2.02,8.2,6.52,11.03,5.65c13-4,25.54-9.5,38.51-14.57c1.65,5.69,10.01,15.99-5.66,20.2 c-31.45,8.45-42.78,30.19-41.82,60.82c-4.66,1.85-9.13,3.62-9.96,3.95c5.24,4.24,12.81,7.97,16.87,14.04 c20.97,31.42,61.03,31.67,80.49-0.73c7.02-11.69,11.31-24.98,17.23-37.36c8.51-17.8,3.04-32.47-9.27-46.06 c-5.14-5.68-9.65-11.92-14.45-17.91c1.24-0.93,2.49-1.87,3.73-2.8c9.3,11.89,20.01,22.97,27.46,35.93 c5.81,10.12,10.35,17.31,22.82,10.3c3.97,6.92,7.31,12.75,11.21,19.55c17.12-19.58,11.46-41.88,11.98-62.45 c0.13-5.24-8.78-11.55-14.68-15.79c-3.97-2.85-9.93-2.92-15.41-4.34c16.88-17.9,25.22-44.58,54.98-45.18 c0.67-0.01,1.31-1.47,1.97-2.25L222.38,290.08z" style="display: none; fill: rgb(167, 0, 10); perspective-origin: 50% 50%;"/>
    <path style="fill: rgb(255, 255, 255);" d="M 106.08981323242188 479.8508605957031 C 131.6843138117172 479.8508605957031 129.44663679432279 458.1610789412652 142.4642791748047 445.2531433105469 C 146.27955536387265 441.470020528211 144.58111057521353 432.1123367001466 148.4029541015625 428.3223876953125 C 153.49579964228627 423.272043599389 147.66477789856992 407.7069763380887 152.11463928222656 403.29425048828125 C 153.24794364875822 402.1704039135854 157.5873511699338 404.90355262436924 158.795654296875 405.5025939941406 C 168.185912798183 410.15800966733457 164.95342908015633 421.8057501066361 173.6423797607422 426.114013671875 C 185.97982424723514 432.2313188014896 199.1719029669312 424.3544065792065 205.5628204345703 418.0166931152344 C 207.73953114736346 415.85810338825144 204.21595006816725 406.83811589266855 206.30517578125 404.76654052734375 C 210.5127779208429 400.5944853564321 209.27450561523438 392.0424996444092 209.27450561523438 384.8912658691406 C 209.27450561523438 381.53793451570175 212.10173875876225 357.51396271087543 209.27450561523438 354.71026611328125 C 203.1425962407145 348.6294045156259 186.9116699685594 332.07458138594967 193.68545532226562 318.6403503417969 C 196.53341808755428 312.9920772129327 201.80792556366652 309.1136787286742 206.30517578125 304.654052734375 C 212.52618428668285 298.48508950143923 230.7874740432086 301.7023236763091 236.7409210205078 304.654052734375 C 238.27440441549177 305.4143563894332 246.91001762393338 308.5564346555413 248.61831665039062 306.8624267578125 C 253.70100435276754 301.8222593303501 251.67015900214162 291.32195956310443 256.78399658203125 286.2510070800781 C 260.19078205064096 282.8727912174701 267.84661032874044 290.26374104280967 270.14605712890625 291.40386962890625 C 278.0257522291209 295.3108378757177 297.1688105272005 296.26022039584154 302.808837890625 290.667724609375 C 304.19488164790954 289.2933617963965 309.2697119323446 268.36579653923775 305.7781677246094 264.9035339355469 C 303.73240135126 262.87492424627413 302.45859847028356 264.94505894444444 300.5818176269531 261.222900390625 C 299.5596009927975 259.19557130625157 293.93509427113037 249.41091253052727 296.1278076171875 247.23663330078125 C 298.60856319600134 244.77673340607296 306.99934836122924 248.23400700289977 309.4898681640625 245.76437377929688 C 313.81196289774624 241.4785260065863 317.4859733576535 237.09874678699597 322.1095886230469 232.51419067382812 C 331.3788447388601 223.3232389291322 317.6545455507882 217.79004755223383 314.6861877441406 211.90281677246094 C 313.8770586612211 210.29804741780117 309.17183458349916 203.3846873476669 311.71685791015625 200.8610076904297 C 316.4246701831701 196.19267717296336 325.30788713678675 193.2730078300489 329.5329284667969 189.0830535888672 C 330.6681132402298 187.9572960200155 345.7480095682401 202.2178827947215 346.6066589355469 203.06936645507812 C 348.44248664302785 204.88987358600744 355.4393371496029 202.99455903048374 356.99932861328125 204.54159545898438 C 364.44078287929636 211.9212517574886 384.52031058017917 209.6944580078125 396.3431701660156 209.6944580078125 C 399.70125754271595 209.6944580078125 406.74048957720584 211.16447279804393 409.7052001953125 209.6944580078125 C 415.3018754430494 206.9194163764139 431.077278915304 201.01536612675483 434.9446105957031 197.18038940429688 C 442.2484319045481 189.937673490796 423.0070397625933 165.49727290398383 420.0979309082031 164.05494689941406 C 418.34350696937776 163.18510964111115 416.38623046875 154.4853973388672 416.38623046875 154.4853973388672 C 416.38623046875 154.4853973388672 429.36178545245656 154.86866288111887 429.7482604980469 154.4853973388672 C 438.41554417130453 145.89009160106414 458.0248498848531 151.47424568720768 466.8650817871094 142.70742797851562 C 468.0099127502588 141.5721043272621 472.63341268270426 142.30912249370195 473.5461120605469 140.4990692138672 C 479.2739544421048 129.1396883039971 481.5391518247134 119.32251248147332 491.3621520996094 109.58199310302734 C 494.9617761649111 106.01259404143941 493.47396124323785 96.44641678581303 497.3008117675781 92.65122985839844 C 499.91724336122184 90.0564467809008 501.5292913928922 80.13716888427734 503.9818420410156 80.13716888427734 C 506.96762370150947 80.13716888427734 503.44858339491674 74.13386825661568 502.4971923828125 71.30371856689453 C 501.27255911084865 67.66074167245746 500.7550214481361 61.22321679192071 498.7855529785156 57.317413330078125 C 492.72497889482855 45.29822561422695 479.04873674235006 40.257834959817615 473.5461120605469 29.344823837280273 C 468.5508350493297 19.438003594962026 471.80172730253815 4.923952165244406 460.1840515136719 -0.8361458778381348 C 456.8567175982472 -2.4858536096795882 454.93094681333497 1.428496265101503 453.5030212402344 2.8444700241088867 C 450.91214173821027 5.413663724905388 444.6294887122062 5.018669868643439 442.36798095703125 7.261195659637451 C 438.5236912436578 11.073218329277179 440.34454162368854 23.25381536382732 436.4292907714844 27.13646125793457 C 429.87445339633473 33.63671204182438 414.4895868119435 29.181016960033855 405.2511901855469 33.76154708862305 C 402.63434294170804 35.05901764840293 386.47206683236436 47.528904543224165 383.7234191894531 44.80336380004883 C 381.0899227864639 42.19200626141918 386.6560131555873 33.00718250729969 382.2388000488281 30.817058563232422 C 366.739010754451 23.13201850716897 347.94604929761636 31.696916103574182 341.4102783203125 38.17827606201172 C 340.11604300425427 39.46173672540172 330.0987475128389 38.91438293457031 328.0482482910156 38.91438293457031 C 314.94601169116044 38.91438293457031 305.0772173612987 40.38663864135742 292.4161071777344 40.38663864135742 C 284.5449129400568 40.38663864135742 266.71279273804186 36.936138925424395 259.75335693359375 40.38663864135742 C 258.60587487215986 40.955562134334436 250.58336548242153 42.33522757906258 249.3606414794922 41.122745513916016 C 241.27210665982832 33.10196291812137 240.6485123637454 23.45584487915039 224.12124633789062 23.45584487915039 C 222.57474816291045 23.45584487915039 215.46103934175713 22.473970277158653 214.47085571289062 23.45584487915039 C 206.54621725834346 31.3139845227981 218.81093322702543 36.70602035522461 200.36648559570312 36.70602035522461 C 187.83120181817208 36.70602035522461 164.68713850175115 27.527863283067248 153.5993194580078 33.025421142578125 C 145.13358947177719 37.22289588839491 138.01594419556014 44.061545322593226 132.07156372070312 49.95619583129883 C 131.3687781189902 50.65310201389772 129.8445587158203 60.26190185546875 129.8445587158203 60.26190185546875 C 129.8445587158203 60.26190185546875 124.69551036978118 47.05862460169368 123.90587615966797 46.27560043334961 C 120.93394902639001 43.32855135402905 104.48723068621779 43.9124616888573 100.8934555053711 44.80336380004883 C 96.707177047806 45.84114833809043 91.11088303807436 50.62680604318566 86.7890853881836 48.48396301269531 C 76.90058185108093 43.58102386490917 55.363298736677166 34.00720185393034 44.4759407043457 44.80336380004883 C 37.8194110808107 51.40413614549814 31.270952548268276 60.57331940811161 37.052574157714844 72.03982543945312 C 38.68484633560081 75.27705887270646 47.61577032347919 88.63247388925957 45.96060562133789 91.91509246826172 C 44.87324088892619 94.07161723473878 43.91678016092254 98.35858444783891 42.248931884765625 100.0124282836914 C 38.70643626868434 103.52517858714845 30.21871394206598 100.16405815715585 26.659870147705078 103.69304656982422 C 25.916336532045857 104.43034263160936 26.659870147705078 109.88858453836394 26.659870147705078 111.05424499511719 C 26.659870147705078 112.8043387886993 25.54363204089077 120.98917632461175 26.659870147705078 122.09606170654297 C 29.52944879589178 124.94159675734393 40.86398422801757 119.25055528051621 43.73360061645508 122.09606170654297 C 45.89172558474235 124.23605452585285 44.4759407043457 133.62639645096405 44.4759407043457 136.8184814453125 C 44.4759407043457 144.05666162082105 31.102281489502776 155.23313137522695 26.659870147705078 159.6382293701172 C 25.44155347028237 160.8463129850587 27.47330966448901 165.38615154502472 26.659870147705078 166.99942016601562 C 21.984662424283663 176.27161036723692 24.697199760237883 185.92659437064853 28.886878967285156 194.2359161376953 C 30.345240748188044 197.12826103844625 27.71168287695488 200.43166628286872 30.371553421020508 203.06936645507812 C 32.3813921928706 205.06245295564105 38.914168112509905 209.70581487817273 40.764251708984375 213.3750457763672 C 42.5178836799629 216.85298624578036 30.490140204531897 216.20197529570424 29.62921142578125 217.0556640625 C 26.80465535281484 219.8564669281858 31.708196695531413 230.45262667679887 28.886878967285156 233.25030517578125 C 26.144329655985914 235.96987524185468 16.594620323410563 233.66177529763308 14.040157318115234 236.19480895996094 C 7.452693481253522 242.72701068437343 22.1017577240078 253.07398683063778 25.175195693969727 254.5978240966797 C 26.748526295894557 255.37789508768358 31.39919021012165 253.40851546735854 32.59856033325195 254.5978240966797 C 34.123330206918666 256.10980270404053 36.12042865108294 258.4499160002281 37.052574157714844 261.222900390625 C 43.51690772856452 280.4532629882568 33.08600745468385 296.5343722766547 40.021915435791016 317.1680908203125 C 40.7553932795392 319.3501231406855 39.99389788270941 324.5014864027535 41.506591796875 326.0015563964844 C 50.91488185973808 335.33133123292356 33.29934993804843 353.2791632054996 31.1138858795166 355.4464111328125 C 28.620583508286376 357.9189314998796 29.126846947794583 362.5695964566127 27.402204513549805 364.27984619140625 C 24.833729773045796 366.8268861786801 28.686280056336987 379.6389405129298 30.371553421020508 380.47454833984375 C 33.17828035046574 381.86620564565715 38.376693196013136 378.8429560756804 40.764251708984375 381.2106018066406 C 41.62752423899608 382.06667444705266 47.74249851549746 386.0686194846632 45.218265533447266 388.57183837890625 C 43.36385250993204 390.4108135254965 35.55814334466244 387.8452979057408 33.34089279174805 390.0440673828125 C 30.057538875323374 393.3000541112268 28.04089617743335 397.5082501139839 25.175195693969727 400.34979248046875 C 17.990882758732297 407.47354100107077 31.994637791579468 434.80993913504983 24.432863235473633 442.3086853027344 C 22.59345456321125 444.1327622610716 24.76451392027662 440.26478274990427 22.94818878173828 439.36419677734375 C 20.93421787204363 438.36561237638375 12.69405647304919 439.22689711669653 11.813149452209473 440.100341796875 C 9.675586899250389 442.2197966272509 0.38184850208005017 458.9455623465994 5.132126808166504 463.65618896484375 C 8.321459759767961 466.8188998058082 15.056366442201316 469.08046253002556 19.236515045166016 473.22576904296875 C 20.7958586274696 474.7721152908162 26.84116544097313 472.21152332894724 28.886878967285156 473.22576904296875 C 37.71107925199447 477.6007253617884 46.138149235591754 482.85391593176087 57.095645904541016 486.4759521484375 C 78.24022374137486 493.46536122837597 114.72411478264146 486.0119336793996 126.87522888183594 473.96185302734375 C 129.65275917707535 471.2074171955395 136.20206931179416 471.3382912418347 139.49493408203125 468.0729064941406 C 143.2385766961293 464.36050578962784 138.43043927482583 455.9755860223701 136.52557373046875 454.0865783691406 C 135.33306256307625 452.90399478551745 124.74897607237608 452.41448055164005 125.39054107666016 451.14215087890625 C 128.62355587540185 444.7305470143582 147.62243584193774 456.2823324519335 149.8876190185547 457.0310974121094 C 172.02146338276714 464.3475242975767 199.31438172800694 452.92161306359765 213.72853088378906 438.6280517578125 C 219.7455513009523 432.66136934864767 226.7373843063911 427.27178145869664 223.37887573242188 417.2805480957031 C 219.139978165921 404.6702438919291 193.52500292645436 407.85514366906517 184.03509521484375 405.5025939941406 C 182.37097624987007 405.09005863035674 175.11166953998986 401.1010773883795 172.90003967285156 403.29425048828125 C 170.85246402568086 405.3247384537921 168.69503052859434 406.72789758759893 166.96136474609375 408.4471130371094 C 163.8288053797559 411.5535621079036 170.58507332357 426.5256354510781 166.96136474609375 428.3223876953125 C 165.8516257139128 428.87263230079185 152.2708892803143 429.21346362466335 151.372314453125 428.3223876953125 C 151.35163309497145 428.30187892978813 158.48321190768712 424.2154630339232 158.795654296875 423.9056396484375 C 166.01848678848762 416.74335151857105 181.59806486121767 412.43327763162006 191.4584503173828 410.6554870605469 C 195.85259943200546 409.86323843105936 231.54147317608582 410.6615687919416 234.513916015625 404.76654052734375 C 234.8167947696704 404.1658632688634 221.39696321317174 404.0303955078125 219.66722106933594 404.0303955078125 C 213.8283001271133 404.0303955078125 197.09739177943283 401.97094691741194 191.4584503173828 404.76654052734375 C 183.4582272658948 408.7327764940208 194.70984549636415 431.86296253795786 184.03509521484375 437.15582275390625 C 177.3039083053073 440.49334639240055 164.11644076255368 440.8363952636719 156.5686492919922 440.8363952636719 C 154.70834327949981 440.8363952636719 148.4022156424197 440.8385920923424 147.66061401367188 443.0447692871094 C 145.9383093862928 448.16842199237806 152.11463928222656 451.17802461080413 152.11463928222656 454.0865783691406"/>
    <path class="st1" d="M222.71,289.76c-0.66,0.78-1.3,2.23-1.97,2.25c-29.75,0.59-38.1,27.28-54.98,45.18 c5.48,1.42,11.45,1.49,15.41,4.34c5.89,4.24,14.81,10.55,14.68,15.79c-0.52,20.57,5.14,42.87-11.98,62.45 c-3.9-6.8-7.24-12.63-11.21-19.55c-12.48,7.01-17.01-0.18-22.82-10.3c-7.44-12.96-18.15-24.04-27.46-35.93 c-1.24,0.93-2.49,1.87-3.73,2.8c4.8,5.99,9.31,12.23,14.45,17.91c12.31,13.59,17.78,28.26,9.27,46.06 c-5.92,12.38-10.22,25.67-17.23,37.36c-19.45,32.4-59.52,32.15-80.49,0.73c-4.06-6.08-21.4-6.61-26.64-10.84 c0.83-0.33,15.07-5.3,19.73-7.15c-0.96-30.63,10.37-52.36,41.82-60.82c15.68-4.21,7.31-14.51,5.66-20.2 C72.24,364.9,59.7,370.4,46.7,374.4c-2.83,0.87-7.31-3.62-11.03-5.65c2.32-2.61,4.89-5.04,6.9-7.87 c3.87-5.46,9.57-10.78,10.58-16.82c1.48-8.79-0.86-18.16-0.95-27.29c-0.21-21.05-0.06-42.11-0.05-63.17 c1.24-0.08,2.47-0.16,3.71-0.24c-5.46-4.28-11.69-7.91-16.09-13.09c-2.73-3.21-2.69-8.79-3.89-13.3c4.19-0.56,8.37-1.34,12.58-1.58 c1.9-0.11,3.85,0.86,7.97,1.88c-11.09-33.43-33.06-67.88,11.45-91.79c-8.32-7.27-17.07-14.91-25.83-22.56 c1.13-1.6,2.27-3.2,3.4-4.8c5.57-1.36,11.14-2.73,15.26-3.73c-4.26-13.41-8.65-25.61-11.92-38.11 c-2.49-9.49,3.34-14.39,11.82-12.09c12.42,3.37,24.25,8.93,37.32,13.94c0.67-1.89,2.25-6.34,4-11.26 c18.92-1.09,22.32,14.87,30.03,27.79c9.21-19.42,19.29-38.43,42.04-38.16c18.44,0.22,36.81,6.19,56.28,9.81 c-0.75-4.39-1.98-11.5-3.2-18.62c0.78-0.81,1.55-1.62,2.33-2.44c7.48,7.28,14.95,14.56,24.03,23.41 c22.44-10.97,47.46-6.36,72.8-2.75c14.18,2.02,30.45,4.38,37.16-14.94c0.51-1.46,5.57-3.06,5.98-2.55 c2.36,2.91,6.17,7.11,5.42,9.66c-3.85,13.05-8.94,25.74-13.99,39.61c5.78,1.77,16.09,9.14,20.08-5.76 c8.49-31.72,30.81-42.03,61.83-42.43C444.18,34.23,453.44,20.62,455,15c-1.82,15.23-0.11,29.63,11.42,36.6 c17.58,10.64,22.22,43.03,8.59,60.48c-18.38,23.52-44.13,34.4-73.51,34.38c-8.25-0.01-16.99-5.93-24.59-10.62 c-7.65-4.73-14.17-11.3-21.18-17.06c-1.03,1.29-2.06,2.58-3.1,3.87c16.36,12.54,32.72,25.08,50.83,38.97 c-0.35,2.13-1.13,6.94-2.1,12.96c5.77,3.04,11.9,6.28,21.39,11.28c-9.2,4.11-15.6,8.65-22.52,9.69 c-12.97,1.95-26.35,3.25-39.37,2.29c-16.81-1.24-20.4-15.63-23.04-29.04c-12.55,8.15-25.98,14.25-35.61,24.08 c-6.02,6.14-6.33,17.89-9.82,29.11c7.42-0.79,11.57-1.24,15.71-1.68c0.76,1.29,1.51,2.59,2.27,3.88 c-10.77,8.5-21.53,16.99-33.84,26.7c4.41,6.25,10.86,14.43,16.13,23.3c2.24,3.77,2.02,8.99,2.92,13.56 c-4.73-0.13-9.86,0.89-14.1-0.61c-10.03-3.54-19.63-8.28-30.75-13.12c-2.82,8.4-5.33,15.85-7.84,23.31 c-6.84-2.41-13.69-4.83-20.53-7.24c-2.87-11.64-5.73-23.28-8.6-34.93c-0.99,1.27-1.98,2.53-2.97,3.8 c-10.12-5.45-21.84-9.16-30.01-16.72c-16.22-15.01-35.74-20.26-56.1-11.63c-11.73,4.97-13.07,7.94-9.67,21.47 c28.16-28.48,37.82-28.1,64.82,2.61c2.35,2.67,4,6.14,6.74,8.25C198.47,272.08,210.64,280.85,222.71,289.76z M256.4,185.73 c1.42,9.7,2.84,19.4,4.6,31.45c7.47,1.78,17.01,4.06,26.56,6.33c-8.56-15.22-13.32-32.34-31.45-37.46 c-1.58-2.4-2.76-5.24-4.81-7.14c-27.75-25.77-27.92-34.89-0.98-60.15c0.55-0.52,0.39-1.8,0.52-2.73 c-23.77-1.64-32.03,26.38-19.81,65.84C239.72,183.19,248.05,184.46,256.4,185.73z M253.79,248.17 c-12.26-6.94-20.41,3.15-24.95,9.96c-3.44,5.15,1.21,15.69,2.27,23.84c12.3-19.85,12.3-19.85,44.71-14.44 c-5.33-4.05-10.67-8.11-16-12.16c4.62-8.02,9.24-16.05,14.24-24.73c-4.48,0.29-12.36-0.33-19.23,2 C252.95,233.26,254.06,242.74,253.79,248.17z M235,227c-0.84-11.73-21-51-28-68c-4.24-10.3-9.66-20.61-14-30 c-4.28-9.25-11.17-19.8-14.35-28.39c-4.15,10.95-8.31,20.1-11.01,29.67c-1.65,5.85-1.99,12.46-1.17,18.49 c0.76,5.55,3.85,10.79,7.95,21.48c-29.62-11.25-52.32-3.87-73.46,11.69C129.03,202.44,203.57,224.72,235,227z M65.14,116.94 c18.3,12.94,35.26,12.59,52.51,9.33c2.3-0.43,5.73-3.76,5.77-5.8c0.36-17.02-1.41-33.64-13.01-52.13 c-2.04,13.95-3.4,23.29-5.31,36.37C92.47,86.44,84.36,66.99,60.76,65.18C59,87.41,76.17,97.66,88.18,112.23 C80.11,113.88,74.21,115.09,65.14,116.94z M65.08,357.13c13.65-11.94,18.5-35.29,11.34-53c-3.38-8.35-5.43-17.63-6.05-26.62 c-1.62-23.65,6.5-31.48,29.85-30.37c1.59-6.64,3.19-13.32,4.77-20c-33.2,12.39-46.53,33.49-44,69.61 C62.38,316.93,63.72,337.13,65.08,357.13z M246.92,101.76c-1.36-21.88,5.62-30.12,26.85-28.97c11.42,0.62,23.15,3.51,33.82,7.7 c14.35,5.63,41.41-1.43,49.32-13.34c-15.61-0.88-32.19-2.1-48.8-2.67c-12.17-0.42-24.58-1.42-36.51,0.35 c-24.08,3.56-36.35,20.83-46.21,42.35C233.56,105.12,239.75,103.56,246.92,101.76z M395.29,186.61c-5.95-7-9.76-11.48-14.08-16.56 c3.33-1.98,5.59-3.32,8.28-4.92c-12.33-9.07-24.16-17.78-37.51-27.61c-0.93,11.49-1.89,20.07-2.26,28.66 c-0.7,16.5,5.42,21.98,21.43,20.53C378.16,186.08,385.28,186.61,395.29,186.61z M187.82,392.92c-2.61-13.82-0.77-32.96-8.75-38.89 c-9.67-7.19-27.63-3.22-45.5-4.28c11.87,15.23,20.31,26.06,28.75,36.88c0.56-1.34,1.12-2.67,1.68-4.01 C170.6,385.47,177.2,388.33,187.82,392.92z M165.78,257.46c-13.89-19.73-23.16-20.8-36.83-3.26 c-8.86,11.37-15.79,24.24-25.51,39.44c14.67,0.01,25.57,0.01,34.42,0.01c-1.74-5.67-6.77-13.09-4.87-17.57 C138.64,262.77,149.1,254.17,165.78,257.46z M257.83,168.15c-4.94-17,4.21-26.91,16.32-32.68c5.06-2.41,13.56,2.43,19.16,3.68 c0-8.77,0.01-19.66,0.01-33.56c-14.74,9.21-27.32,15.87-38.54,24.34C235.96,144.14,236.64,152.16,257.83,168.15z M379.9,112.88 c17.86,20.94,62.75,12.63,77.61-12.38c6.85-11.53,3.31-21.71-8.55-33.45c3.15,23-5.61,37.13-21.92,46.54 c-3.8,2.19-11.97,3.52-13.67,1.5C402.46,102.13,391.49,110.89,379.9,112.88z M109.93,376.18c-0.2,13.84-10.5,26,3.52,36.92 c1.79,1.4-0.71,10.38-3.15,14.78c-9.12,16.41-25.05,20.86-44.28,20.6c14.25,12.71,28.08,12.85,39.54,2.12 C125.84,431.62,128.48,401.59,109.93,376.18z M385.71,101.28c7.72-4.02,12.96-6.75,18.08-9.41c15.95,15.81,15.95,15.81,20.88,8.89 c-3.59-10.29-8.45-18.01-8.34-25.65c0.11-7.82,5.1-15.56,7.61-22.42C402.16,58.81,400.17,61.16,385.71,101.28z M89.81,402.73 c2.96-5.91,5.46-10.89,9.07-18.11c-42.34,16.57-51.15,25.62-49.11,49.14c1.03-12.24,7.88-18.1,18.88-18.95 c11.1-0.86,22.49-1.42,26.78,12.82C104.33,417.98,104.33,417.98,89.81,402.73z M314.74,139.91c-9.51,10.33-18.99,20.64-27.24,29.61 c23.68,2.25,40.46-21.61,31.35-52.87c-5.09,2.81-9.67,5.33-14.24,7.85C308.11,129.82,311.61,135.15,314.74,139.91z M75.32,222.91 c1.15,1.21,2.3,2.41,3.45,3.62c14.83-6.96,29.67-13.92,45.76-21.48c-8.85-3.44-16.65-6.47-26.23-10.2 C101.26,212.95,87.58,217.37,75.32,222.91z M202.72,134.22c4.92-13.55,8.79-24.19,12.94-35.64c-8.52,1.3-15.54,2.37-22.91,3.5 C196.06,112.75,199.02,122.29,202.72,134.22z M141.52,318.47c18.34-2.83,26.37-11.29,27.44-28.01 C159.43,298.76,141.98,300.55,141.52,318.47z M140,138c36-15,20.65-40.98,4-52C143.34,97.49,140.84,123.46,140,138z M93,145 c-3,0-15.15,1.52-16,3c5.2,3.6,22.88,19.02,27.62,18.49c6.15-0.68,26.6-17.43,32.38-21.49c-0.71-1.02-10,0-15,0 C112.59,145,102.41,145,93,145z M99.56,277.17c1.41-0.71,2.82-1.42,4.23-2.13c-4.77-6.12-9.54-12.24-16.6-21.29 c-3.11,8.04-5.23,13.52-7.37,19.06C87.71,274.55,93.64,275.86,99.56,277.17z M271.63,81.94c-5.3,2.35-10.15,4.5-15,6.65 c8.87,3.41,7.88,21.52,20.59,14.18C275.4,96.01,273.87,90.3,271.63,81.94z M114.55,315.55c0.74,1.65,1.47,3.29,2.21,4.94 c6.17,0.3,12.33,0.59,18.5,0.89c0.88-1.36,1.76-2.72,2.64-4.07c-4.57-4.22-9.13-8.44-13.7-12.66 C120.99,308.28,117.77,311.91,114.55,315.55z M177.82,85.21c1.28-6.17,2.35-11.31,4.04-19.41C173.06,70.66,167,74,158,78.97 C166.9,81.77,171.95,83.36,177.82,85.21z M305.53,90.4c-1.84,1.34-3.68,2.67-5.52,4.01c4.79,6.59,9.59,13.19,14.38,19.78 c1.8-1.31,3.59-2.62,5.39-3.93C315.04,103.64,310.29,97.02,305.53,90.4z M82.3,433.51c-14.05-10.98-18.18-9.37-20.48,5.91 C69.31,437.26,75.8,435.39,82.3,433.51z" style="fill: rgb(167, 0, 10);"/>
  </g>
</svg>